<svg width="612" height="639" viewBox="0 0 612 639" fill="none" xmlns="http://www.w3.org/2000/svg">
<path d="M30.47 237.77L28.39 237.73L28.93 235.92L28.72 235.09L28.47 234.6L27.22 233.9L27.08 233.45L27.35 232.3L26.58 230.35L25.49 229.71L19.89 228.46L12.55 228.27L12.82 227.71L15.31 225.45L16.2 224.22L16.49 223.02L16.27 221.79L15.59 220.88L14.76 220.44L13.08 217.49L12.31 217.05L11.41 216.86L10.28 215.73L9.36 213.35L7.36 211.82L6.38 208.2L5.51 206.56L3.63 205.48L3.55 204.31L4.36 204.41L4.78 203.89L4.85 203.22L4.65 202.8L2.53 201.87L2.17 201.21L0 199.32L0.04 198.95L0.66 198.9L1.16 197.58L1.15 196.27L4.16 195.88L4.66 195.49L4.44 194.14L3.27 192.57L21.22 200.05L44.88 205.71L57.02 208.85L83.46 223.02L111.97 235.15L114.94 236.41L114.64 236.89L113.07 237.55L110.98 239.14L108.12 241.93L106.47 242.79L105.81 242.61L104.28 242.79L104.23 243.35L102.31 244.65L100.23 245.64L98.79 247.47L98.35 248.65L97.74 248.93L96.57 248.18L95.81 248.05L93.44 248.1L92.76 248.36L92.13 248.81L91.77 249.67L89.33 253.15L85.56 254.4L84.72 255.09L82.78 255.6L81.75 255.63L81.83 253.52L80.47 253.72L76.92 252.95L71.68 252.48L66.59 252.86L65.93 252.28L63.66 252.11L60.1 253.94L57.37 254.56L55.69 253.89L54.29 252.45L52.65 253.61L52.69 236.06L52.74 234.96L53.21 234.25L53.28 231.9L53.02 231.02L53.99 229.84L54.47 228.7L53.31 228.9L50.34 231.49L48.74 232.5L46.68 234.88L44.73 235.55L44.08 236.63L42.27 237.62L30.47 237.77Z" fill="black"/>
<path d="M165.82 47.29L166.54 48.07L167.29 48.41L167.9 48.42L169.03 48L169.66 48.11L169.72 49.07L170.93 50.24L171.9 50.61L172.78 50.4L174.14 50.51L176.09 51.46L176.58 52.12L175.67 55.44L174.96 56.94L177.69 60.68L179.35 65.44L179.54 67.7L180.41 68.82L180.46 69.27L178.84 70.73L179.2 72.32L179.86 73.9L179.09 76.94L178.52 77.9L178.81 82.88L179.69 85.05L180.91 85.89L181.49 86.79L182.62 91.12L182.56 91.7L181.42 93.02L179.58 92.69L179.44 93.83L184.45 98.25L184.97 98.29L186.93 99.6L188.41 101.25L189.45 103.29L189.98 103.36L191.32 102.94L193.68 103.98L193.24 101.87L193.99 99.58L194.24 97.85L193.87 96.05L194.69 93.08L195.71 91.82L196.99 91.13L199.08 90.42L199.63 89.53L201.23 89.47L204.06 90.4L205.93 92.44L206.85 94.95L208.67 95.18L209.92 94.72L211.33 93.31L213.36 92.76L213.78 92.37L213.8 91.84L212.66 90.43L212.43 89.7L212.54 89.04L213.69 86.4L213.76 85.27L215.42 82.24L217.75 78.98L217.72 78.3L236.21 78.37L236.61 83.23L236.18 84.68L236.36 86.95L236.6 87.63L238.3 88.48L238.48 88.89L238.13 89.58L238.08 91.69L239.91 93.68L240.27 93.87L240.97 93.69L242.81 94.92L243.36 96.75L243.4 97.68L243.7 98.13L248.34 101.9L252.92 104.44L253.55 105.34L254.9 106.43L256.78 107.1L259.15 108.41L261.41 109.06L262.77 109.21L264.09 110.03L264.17 110.64L265.44 111.98L268.14 113.42L269.24 115.59L271.11 116.38L271.96 115.77L273.34 115.42L273.53 115.9L273.4 116.68L275.21 118.35L245.31 182.59L244.53 183.9L243.08 185.03L242.5 186L242.47 187.13L243.29 189.46L243.67 190.03L244.74 190.61L246.32 192.17L246.96 193.43L247.11 195.39L247.68 195.96L246.5 197.16L246.3 197.77L246.24 198.53L246.58 199.37L246.31 200.38L245.11 202.2L244.25 202.84L243.83 203.69L243.93 204.54L244.59 205.91L245.05 207.85L243.67 212.07L242.49 217.29L241.28 218.02L193.43 218.34L193.47 217.64L193.11 217.26L191.72 216.98L189.8 218.06L189.26 219.8L188.58 219.99L185.34 218.51L184.66 215.63L184.04 215.43L183.06 215.56L182.6 215.35L181.35 212.08L178.81 211.1L177.48 209.83L176.68 207.92L176.23 207.43L174.08 206.3L163.29 206.36L161.91 208.92L160.19 209.42L160.28 210.59L160.02 210.81L157.54 211.34L156.35 212.93L156.3 213.6L157.2 214.3L157.37 214.75L157.01 215.77L156.2 216.92L154.14 218.13L154.03 219.94L154.27 221.4L150.4 220.94L148.27 221.32L147.07 222.39L145.28 222.29L144.44 221.74L143.98 221.72L142.23 222.98L141.7 223.82L141.96 225.57L139.42 228.73L138.74 228.81L138.06 228.28L137.42 226.02L137.04 225.93L135.2 226.95L133.9 228.16L132.53 228.55L131.76 228.42L130.68 228.92L130.27 229.45L130.14 230.17L128.92 230.96L128.55 230.98L126.24 228.65L125.52 228.28L122.65 228.61L118.69 228.35L118.85 229.64L118.7 230.2L117.15 232.01L115.23 232.59L111.97 235.15L83.4599 223.02L57.02 208.85L44.88 205.71L21.22 200.05L3.26995 192.57L3.19995 191.92L3.89995 189L5.11995 187.6L10.04 184.13L12.3 183.89L12.77 183.59L13.75 182.03L13.83 181L12.09 176.51L12.47 175.32L13.65 173.13L14.93 171.81L15.85 170.56L16.27 169.58L16.57 167.84L16.28 166.52L16.95 164.48L17.26 162.17L17.99 161.42L21.65 159.79L23.84 158.56L24.99 157.52L25.43 156.12L26.21 155.75L27.62 155.64L29.27 154.71L32.81 151.98L35.2299 151.55L36.74 151.84L40.93 150.62L42.43 149.85L44.25 149.49L47.58 149.87L48.88 148.28L49.51 146.83L50.6 146.22L52.74 146.42L53.38 146.96L54.7 146.72L55.7999 145.98L57.51 146.1L57.82 146.63L57.7999 147.81L59.41 149.1L62.24 149.18L62.82 148.78L63.28 148L63.17 147.61L64.34 142.69L71.0399 105.52L72.2 102.6L71.2099 97.64L71.33 97.38L70.03 96.33L68.55 93.58L68.5099 93.09L69.16 91.7L68.64 89.92L68.27 89.52L66.57 88.93L63.54 86.58L61.6 84.3L61.7999 72.79L65.69 72.53L67.44 71.36L70.94 70.44L73.6199 72.2L74.84 72.31L76.11 71.88L75.6199 70.19L75.92 68.47L74.55 66.37L73.9799 65.83L72.83 65.23L71.3199 65.76L68.53 65.15L64.9599 65.24L64.9 55.34L65.86 55.38L67.18 54.8L69.4599 54.2L72.3 55.07L91.33 55.13L90.8699 54.47L90.08 54.33L89.7 53.13L90.6499 51.2L92.08 51.6L92.69 53.12L93.56 54.44L94.22 54.79L95.05 54.8L96.66 54.19L98.5999 52.1L98.92 51.26L100.18 50.02L102.73 48.63L104.02 49.09L105.19 51.67L106.81 53.66L107.55 54.96L108.21 56.74L108.44 58.29L107.95 61.92L108.15 63.68L111.35 62.93L119.66 69.99L120.45 70.27L122.95 70.48L125.25 69.48L126.95 67.78L129.06 66.62L131.25 66.51L131.81 66.8L132.58 67.88L132.56 68.85L131.45 70.55L131.82 71.53L132.4 71.8L133.73 71.08L134.29 70.17L134.52 68.88L135.52 67.72L135.99 67.49L136.99 67.67L137.54 67.49L137.95 66.83L138.41 64.52L138.92 64.15L140.43 63.79L143.36 62.02L144.33 62.57L145.26 62.28L146.86 61.24L147.88 59.63L149.99 58.42L152.02 58.97L154.38 57.32L154.93 56.5L155.37 53.84L155.34 52.55L156.11 51.63L157.14 51.21L158.88 51.19L160.22 50.8L162.28 49.2L163.24 48.83L165.52 48.53L165.82 47.29Z" fill="black"/>
<path d="M344.98 99.7001L344.04 99.6401L343.27 99.9801L341.97 100.1L339.18 99.4201L337.73 98.3901L337.3 96.8901L335.43 95.5001L335.32 94.2001L335.53 93.5101L335.22 91.9301L334.89 91.4601L333.94 91.2701L333.53 90.3301L333.61 87.9001L330.68 84.6201L329.9 84.9801L329.08 84.7901L327.58 81.3101L327.71 79.7301L327.12 77.9201L326.5 77.3601L325.83 75.8501L325.64 73.7401L326.07 70.6001L325.9 70.2701L323.33 69.5401L321.31 67.2801L320.55 64.4501L320.74 63.7301L321.42 63.5001L320.93 62.3201L320.25 62.3501L317.41 59.6901L316.47 59.8301L316.09 60.2501L314.76 60.3901L313.92 60.1201L313.12 59.1401L311.98 58.3001L310.79 58.1801L310.3 56.9001L309.63 56.1001L307.7 55.0501L306.41 54.5601L303.02 54.1901L301.94 54.4801L300.77 54.4601L300.46 53.9201L300.22 52.4801L300.47 47.9401L301.09 46.6401L300.72 44.3401L300.1 43.7701L300.45 43.5601L301.44 43.8601L301.43 44.6701L301.14 44.8501L301.48 45.8201L302.95 45.7601L303.77 45.9901L304.12 46.8901L304.96 47.6001L307.21 48.3801L310.5 49.1301L313.26 47.3501L313.61 46.5901L315.34 45.4201L316.17 45.1301L316.86 46.0701L319.57 47.0101L320.65 46.8901L322.37 45.8801L322.49 45.4601L322.81 45.4901L324.27 46.7901L324.07 47.6601L326.44 47.4901L326.95 47.9901L327.9 48.1601L328.52 48.1501L329.43 47.6701L331.1 46.1701L332.88 45.0701L334.63 42.7701L335 41.7701L334.8 41.2301L337.93 34.7301L338.04 32.9101L339.15 31.6101L339.88 31.4201L343.48 25.6301L343.71 24.4801L344.55 23.2801L346.34 21.7301L346.97 20.0701L349.08 18.9301L349.55 18.0101L350.59 17.4301L351.15 18.8901L352.03 20.2501L350.36 15.4501L350.29 14.1601L350.47 13.8301L353.84 16.2501L354.98 17.4601L355.89 18.6801L356.41 19.8701L356.44 21.4501L356.88 21.7601L357.2 21.2801L357.58 21.1801L357.79 21.5801L358 29.4701L358.66 33.3401L361.37 39.3901L364.03 48.3301L367.35 53.3301L368.36 53.6801L371.63 53.6001L374.41 54.5401L375.7 55.3901L376.47 58.0401L376.31 61.3701L375.02 62.3301L373.29 62.7601L372.91 63.0901L374.7 62.9401L375.74 62.5201L376.02 62.7501L376.14 63.3401L375.97 64.0701L370.94 68.1301L369.77 70.2301L367.62 71.6401L365.68 75.3601L362.77 78.8601L362.07 79.3201L361.13 79.2301L359.68 79.7501L357.6 82.7301L356.26 82.8001L355.51 83.7001L354.04 85.3801L353.07 87.6001L351.95 89.4701L351.11 90.1201L348.1 93.5701L347.74 95.9701L347.91 97.7701L345.96 99.5801L344.98 99.7001ZM368.34 52.7101L367.89 52.3801L366.79 50.5201L366.86 49.6401L367.09 49.2301L368.75 48.7801L369.18 49.1701L370.01 51.4401L369.02 52.5401L368.34 52.7101ZM370.83 70.3201L370.43 70.0701L370.35 69.3601L371.46 68.2601L372.34 68.1101L373.59 68.3501L374.05 68.2401L374.49 67.6001L374.54 68.1901L373.57 69.6301L372.58 70.1301L370.83 70.3201ZM374.27 67.4501L373.49 67.2201V66.6601L374.21 65.6201L375.46 65.5201L375.64 65.8701L375.54 66.3801L374.27 67.4501ZM367.08 49.0301L366.32 48.5301L366.58 47.7001L367.46 47.5301L368.32 47.8501L368.33 48.5801L367.08 49.0301Z" fill="black"/>
<path d="M527.5 365.33L527.14 364.5L527.82 363.15L527.81 362.62L527.28 361.58L523.15 358.53L523 358.02L523.22 356.51L522.65 355.28L522 355.52L521.8 355.97L521.46 356.15L521.24 355.9L521.77 351.5L522.59 348.2L523.41 347.32L525.88 347.56L526.9 346.85V346.43L526.34 345.41L526.5 342.76L531.46 338.54L532.93 335.46L532.51 334.29L531.73 333.27L530.84 333.21L530.11 332.83L527.28 330.36L525.16 330.38L522.97 329.78L520.7 328.7L517.97 328.14L515.99 328L514.67 328.99L513.2 329.49L510.59 329.04L510.02 329.25L509.58 325.29L503.06 319.09L502.68 318.91L498.29 320.14L496.76 318.9L496.25 319.11L495.32 318.89L492.78 317.67L490.61 316.05L489.63 316.23L485.28 312.6L484.18 312.06L481.45 311.31L479.68 311.56L477.8 312.46L476.99 313.58L476.35 313.76L471.02 312.29L470.41 311.8L470.15 310.3L470.29 309.41L471.58 306.67L470.72 306.21L468.44 305.69L466.26 305.65L465.06 305.15L463.27 305.07L459.44 306.65L455.18 309.68L454.54 310.79L451.17 312.66L449.15 313.06L448.2 314.24L446.39 315.79L444.96 316.31L443.96 316.16L442.11 318.74L441.07 319.51L438.94 319.13L438.22 319.26L437.53 320.26L436.19 321.18L435.79 320.94L437.22 317.51L436.71 315.1L438.19 313.13L438.44 312.36L438.21 311.09L437.54 309.37L437.64 308.7L438.35 307.28L438.3 306.82L435.09 304.2L433.4 300.74L432.78 297.22L432.83 295.67L434.03 291.84L435.62 290.81L435.85 290.43L435.91 289.49L434.28 288.65L434.17 288.32L434.65 285.8L436.08 284.74L436.06 284.37L433.34 281.91L433.3 280.98L434.66 278.6L434.62 277.53L434.45 277.11L432.99 276.62L432.05 275.97L431.7 274.71L431.76 271.79L431.95 270.94L433.9 269.27L435.04 268.85L436 268.13L435.71 267.5L435.13 266.98L434.21 266.69L433.18 266.87L432.83 266.54L432.74 266.04L433.16 265.08L435.2 264.26L435.76 263.81L435.72 263.05L433.84 262.07L430.26 261.4L428.4 259.44L428.17 258.52L428.67 257.36L429.68 256.63L431.2 253.15L432.1 252.54L433.11 252.27L433.46 251.89L432.17 250.09L432.36 249.72L435.57 247.1L439.39 245.08L439.95 244.61L440.17 243.63L440.86 242.98L443.19 242.96L444.63 244.3L445.29 245.34L445.82 247.55L447.58 250.04L451.76 251.9L453.56 251.38L455.67 251.56L456 251.35L456.75 249.9L457.89 249.53L458.56 248.66L459.73 247.77L461.94 247.02L463.27 247.19L464.75 247.72L466.1 247.3L469.07 244.88L472.02 239.83L472.74 238.97L472.98 238.05L473.28 235.49L473.16 234.33L470.92 229.9L470.97 228.97L474.21 227.32L476.16 227.3L477.66 227.76L478.07 228.69L478.39 228.87L480.51 228.44L481.9 227.9L483.23 228.28L484.94 229.27L484.81 229.92L485 230.21L485.82 230.49L488.82 230.38L490.29 229.74L491.99 229.64L492.81 228.42L494.32 227.08L497.05 226.74L497.82 226.38L498.63 225.4L500.8 225.41L501.42 226.04L501.73 226.09L503.59 224.28L503.49 221.88L505.48 221.5L506.27 221.68L507.32 221.02L508.82 218.71L509.28 217.56L510.17 217.96L511.33 217.69L513.53 217.98L516.35 219.37L516.79 219.88L516.73 222.61L517.45 224.55L519.66 225.46L519.93 227.46L519.01 229.14L520.84 229.76L521.8 229.54L522.62 228.62L525.49 227.74L526.26 224.16L526.76 223.29L527.51 223.13L528.29 223.66L528.92 223.71L531.31 222.69L532.41 221.45L532.58 220.86L532.33 219.5L532.62 219.25L534.86 218.8L535.63 216.75L537.28 216.31L539.81 214.85L540.4 214.75L541.89 215.31L542.72 216.75L544.08 217.56L546.44 218.34L549.43 218.74L551.01 219.89L551.55 221.54L551.94 221.81L552.37 221.66L552.66 219.91L553.09 219.47L554.09 219.46L554.54 219.78L554.56 220.41L553.94 221.29L554.39 222.12L554.89 222.49L556.99 223.35L557.01 224.29L558.23 227.34L558.77 228.74L559.79 229.03L560.24 228.94L561.67 229.73L561.87 230.45L561.2 231.61L561.41 233.75L562.69 236.25L564.68 238.2L565.43 239.35L565.35 242.47L564.69 244.09L564.6 244.97L565.36 247.72L565.06 248.3L564.37 248.85L561.82 249.85L560.69 249.1L558.98 249.09L558.66 249.39L558.07 250.97L558.09 251.74L559.04 253.34L560.14 254L560.66 255.49L562.09 257L562.24 257.39L562.11 258.81L561.77 259.2L561.89 259.62L562.48 260.14L564.41 261.06L564.89 261.77L565.43 262.11L566.98 262.75L569.87 261.87L570.51 261.85L570.87 262.26L566.79 271.09L562.96 276.28L561.93 278.61L556.9 284.35L554.45 285.61L553.58 285.6L553.88 284.17L554.25 284.02L554.39 282.92L553.94 280.99L552.07 280.74L551.64 279.44L550.96 278.69L550.59 279.29L550.13 281.62L549.63 282.49L549.08 282.87L548.52 282.58L548.03 280.84L548.14 280.52L548.45 280.39L548.42 280L547.55 281.29L548.48 282.98L548.94 283.21L549.31 283.06L550.46 283.32L550 285.13L548.79 286.28L548.54 288.1L547.29 289.07L546.94 289.74L546.74 290.58L546.92 291.43L545.57 291.04L545.36 291.43L545 293.95L545.36 293.23L546.11 293.44L546.35 293.98L546.12 294.39L546.18 295.01L546.48 295.31L546.81 296.31L545.77 298.82L546.34 302.26L545.79 302.75L545.22 302.53L545.08 303.66L545.67 304.12L546.88 302.4L546.41 300.19L547.23 299.58L547.48 300.12L547.42 301.88L546.46 304.49L545.72 309.92L545.21 311.73L545.41 314.2L546.19 317.05L546.38 321.59L547.25 328L548.24 331.42L546.03 338.08L544.68 344.73L544.21 345.74L544.05 348.6L542.99 352.32L542.9 354.65L543.29 359.07L544.18 360.78L541.94 363.76L540.13 364.43L539.19 365.07L536.47 368.96L535.9 371L527.81 365.86L527.5 365.33ZM549.78 287.33L549.55 286.13L550.29 285.72L551.35 284.68L551.51 284.04L551.14 283.31L551.9 283.45L552.72 284.5L552.67 285.03L549.78 287.33ZM547.25 294.18L546.62 294.15L546.63 293.48L546.89 293.12L546.09 292.9L545.67 292.5L545.8 291.43L547.67 291.28L547.83 291.48L547.94 292.61L547.25 294.18Z" fill="black"/>
<path d="M573.79 156.85L568.9 158.44L566.29 160.45L562.99 167.14L562.15 168.26L561.28 168.83L560.63 170.5L560.78 171.24L559.38 173.68L557.92 175.19L557.35 176.29L556.32 176.55L555.54 176.04L555.03 176.11L554.19 176.99L552.78 179.24L552.44 181.21L553.08 181.38L553.74 181L553.66 181.54L552.82 182.69L551.79 185.69L552.31 187L551.65 188.31L550.56 188.94L550.39 189.32L550.27 190.25L550.51 190.66L551.09 190.95L551.44 191.67L551.42 193.33L552.66 194.22L553.35 194.3L553.69 195.49L552.08 198.98L550.89 200.1L551.06 200.35L549.47 200.84L548.4 201.67L546.86 203.96L545.21 204.01L544.58 202.37L543.8 201.8L542.44 201.32L541.43 200.25L540.97 199.26L539.14 198.43L536.29 196.53L533.21 196.11L531.92 196.21L529.78 197.01L528.15 197.2L527.26 196.96L522.33 196.76L522.39 195.44L521.71 194.76L521.63 193.79L522.77 190.68L524.27 188.43L524.28 187.74L523.51 186.58L520.95 186.11L519.64 185.46L518.63 182.79L517.58 177.59L516.82 175.02L517.06 174.57L516.12 166.41L516.01 166.03L515.09 165.34L515.89 164.76L516.48 163.18L515.88 160.19L514.88 158.18L515.36 156.58L514.57 152.71L515.31 151.35L515.33 150.59L513.97 149L513.53 147.27L510.38 140.85L508.58 136.13L508.29 134.84L508.47 133.38L510.05 131.41L511.14 129.56L511.25 128.76L511.44 128.62L511.4 128L511 127.34L511.65 126.53L518.39 126.31L521.28 125.88L523.35 125.22L530.75 126.01L532.87 127.13L534.81 128.63L538.93 130.81L540.39 131.33L545.21 134.33L546.42 134.53L548.64 136.82L551.63 138.93L554.2 139.65L556.64 142.56L557.86 143.17L560.82 146.98L564.98 150.06L566.44 152.06L567.48 153.05L568.98 153.87L570.13 153.9L572.5 154.82L573.29 155.49L573.79 156.85Z" fill="#E88E09"/>
<path d="M416.71 333.87L402.02 333.85L401.5 330.59L402.42 328.76L402.8 325.03L414.75 325.04L416.58 327.02L416.64 329.23L416.05 330.42L415.84 332.86L416.71 333.87Z" fill="black"/>
<path d="M501.63 411.37L501.34 411.23L501.78 408.89L502.35 407.59L501.76 404.47L501.92 404.05L503.64 401.99L508.79 402.02L509.34 401.7L510.31 398.46L511.42 397.19L512.3 394.9L512.54 393.18L512.8 392.74L514.04 391.88L515.75 389.79L516.29 386.82L516 384.39L514.73 381.58L513.63 380.31L513.11 380.22L512.66 380.51L511.9 380.23L511.41 379.52L511.84 378.97L513.32 378.88L514.12 379.23L515.09 379.26L516.04 379.02L516.36 378.6L516.19 376.88L514.88 376.53L514.67 376.12L514.97 374.58L515 372.66L514.48 372L513.15 371.33L512.85 370.63L514.02 368.7L516.19 367.39L516.5 367.37L517.55 368.11L518.68 368.22L518.7 367.41L517.03 365.14L518.37 365.27L520.55 364.98L521.39 364.37L522.47 364.05L524.05 363.97L526.59 364.78L527.5 365.33L527.8 365.86L535.9 371L534.97 374.35L534.66 377.21L534.78 380.8L535.5 386.95L535.19 389.42L533.7 392.6L530.95 393.99L530.4 394.59L528.73 397.92L527.75 401.72L526.98 403.19L526.15 402.51L525.27 402.38L524.98 403.66L526.33 404.18L524.39 408.42L520.94 412.26L520.7 411.99L518.84 412.65L518.04 413.88L517.98 415.27L517.56 416.52L515.97 418.54L515.68 419.67L514.06 418.61L511.07 418.98L506.73 417.97L504.23 416.84L503.56 412.13L501.63 411.37Z" fill="#ED7A08"/>
<path d="M416.71 333.87L415.84 332.86L416.05 330.42L416.64 329.23L416.58 327.02L414.75 325.04L402.8 325.03L402.42 328.76L401.5 330.59L402.02 333.85L416.71 333.87L416.18 335.39L416.49 336.96L415.81 338.55L414.77 339.8L414.36 341.27L415.21 342.48L416.06 342.82L417.48 343.85L419.13 348.41V349.01L416.81 351.72L413.57 354.73L413.14 356.87L414.23 357.98L415.13 357.51L416.71 358.08L417.18 358.69L417.36 359.69L417.19 360.4L416.46 361.3L415.95 363.19L417.14 366.65L414.05 368.71L412.89 368.91L412.03 369.81L411.55 370.93L406.66 373.67L405.96 372.9L401.61 371.04L401.06 371.52L400.48 371.61L398.73 371.62L397.25 371.34L393.39 371.5L391.38 370.61L387.25 373.25L384.34 376.17H384.01L382.7 374.75L381.18 374.45L377.99 376.09L374.28 375.47L371.8 376.43L369.57 376.97L368.16 379.07L366.95 381.53L367.01 382.53L366.17 383.83L365.35 384.11L364.51 383.95L364.06 384.09L363.12 384.83L361.48 386.93L360.91 388.83L361.47 389.44L361.46 389.78L361.1 390.01L360.24 389.55L360 389.1L357.34 386.86L354.19 386.25L352.57 384.7L350.67 384.27L349.18 384.23L345.83 382.89L345.15 382.04L342.08 380.48L341.41 379.87L339.97 379.16L338.83 378.99L336.13 377.31L333.35 377.47L329.55 376.77L329.42 376.44L329.68 375.6L330.25 374.43L331.56 372.67L331.48 372.25L329.23 371.35L328.09 372.02L327.43 371.83L327.15 371.42L326.92 370.31L327.18 367.73L326.99 365.96L326.04 363.76L325.86 360.33L324.45 358.14L324.29 357.43L324.69 354.02L327.24 350.17L327.62 347.26L328.32 346.49L330.34 345.65L332.26 343.88L333.51 341.86L333.84 339.91L334.34 338.9L335.62 337.86L336.44 336.43L336.52 334.89L338.27 333.92L339.67 331.3L342.32 331.17L345.04 330.31L345.36 330.03L347.34 325.84L348.05 324.88L348.69 320.78L349.07 320.04L350.99 318.1L352.64 317.09L353.71 316.83L354.94 317.51L356.15 316.78L357.54 315.35L358.38 312.42L359.55 309.55L359.54 308.75L359.06 307.61L359.64 304.87L361.24 301.78L361.12 296.6L362.33 295.82L363.36 293.19L365.36 290.02L365.75 288.95L365.59 286.23L365.94 285.33L366.91 284.47L367.18 283.34L367.1 282.71L367.44 282.26L367.64 280.38L368.3 279.15L370.11 277.06L370.67 276.76L370.64 278.47L369.42 280.35L368.9 282.69L371.3 283.09L373.5 284.12L377.43 284.52L380.52 286.23L384.59 287.66L385.22 287.43L386.85 281.49L388.32 279.1L389.5 278.13L390.65 279.44L391.69 281.32L392.8 285.03L393.41 288.13L394.55 288.18L395.3 287.43L395.6 286.43L396.16 285.89L398.92 286.23L403.45 285.7L403.67 286.44L403.11 288L406.24 289.47L409.59 290.15L410.28 290.07L410.79 286.77L411.34 286.8L412.85 289.42L413.31 289.66L415.09 288.76L417.61 286.68L422.14 285.68H423.69L426.25 284.58L427.99 283.24L433.35 281.82L436.07 284.28L436.09 284.66L434.66 285.72L434.18 288.24L434.28 288.57L435.91 289.41L435.85 290.35L435.62 290.73L434.03 291.76L432.84 295.59L432.79 297.14L433.41 300.66L435.11 304.12L438.32 306.74L438.37 307.21L437.65 308.63L437.55 309.3L438.22 311.02L438.45 312.3L438.2 313.07L436.72 315.04L435.72 316.05L432.49 315.71L431.59 313.95L429.17 312.47L428 313.96L428.58 317.73L428.01 318.27L427.61 318.4L424.83 317.26L423.66 317.49L423.29 317.77L422.57 320.95L423.29 321.05L423.78 322.21L423.21 323.15L422.48 323.85L422.52 325.75L422.94 326.36L423.47 326.55L424.16 330.81L423.63 331.34L420.27 332.24L417.98 333.75L416.71 333.87Z" fill="#F19300"/>
<path d="M458.57 128.92L458.53 129.25L456.49 131.4L456.06 131.57L456.02 133.01L457.99 131.31L458.67 130.1L460.79 128.52L461.68 127.38L462.71 121.05L463.86 120.35L464.97 120.23L466.64 119.31L467.29 119.18L467.75 119.3L467.83 120.93L467.63 121.38L466.21 123.25L463 125L462.97 125.72L463.7 125.84L464.15 125.03L465.3 124.72L465.52 125.55L464.93 126.06L465.18 126.36L469.39 121.39L470.25 121.72L472.83 120.79L476.87 121.22L476.41 118.81L477.02 118.58L479.44 118.66L481.22 119.04L483.85 120.09L484.89 120.2L487.04 121.58L488.44 121.61L489.7 122.91L491.59 124.23L494.09 124.81L495.25 124.62L495.81 125.38L496.15 125.43L497.74 125.34L500.2 126L500.46 125.1L499.79 124.63L501.46 124.25L502.03 124.36L501.94 124.78L501.48 126.21L501.71 126.93L502.34 127.47L501.96 129L500.17 131.27L496.04 135.24L492.72 135.7L491.92 135.54L489 138.94L489.04 140.74L488.16 142.57L486.27 144.42L485.45 146.4L484.81 146.57L484.04 147.62L484.4 149.54L485.63 150.37L486.01 151.65L485.73 153.11L484.59 155.98L486.17 158.79L486.72 161.77L486.61 164.2L486.4 164.75L482.3 169.17L482.13 171.65L482.25 173.76L482.76 176.06L484.54 178.1L486.15 179.01L486.32 179.51L486.45 180.35L486.06 182.55L485.77 182.99L485.65 184.2L485.15 185.66L483.94 186.97L481.65 187.26L481 186.98L480.17 187.02L477.74 187.88L476.22 187.99L473.72 186.17L472.71 185.96L471.25 186.15L470.24 186.75L469.12 187.01L468.89 186.71L468.05 186.95L467.55 187.17L465.65 189.08L465.66 189.54L465.03 190.41L463.02 192.41L460.68 193.32L457.81 195.88L456.48 196.41L455.43 196.45L453.73 197.98L452.65 198.34L450.04 198.66L447.32 199.42L445.19 201.37L444.21 204.34L443.82 207.31L443.19 209.63L441.74 212.37L441.44 212.59L441.1 213.41L440.97 214.93L439.77 217.41L438.07 218.81L437.34 220.81L438.05 222.75L438.52 225.93L440.25 228.99L440.21 229.51L439.45 230.91L439.32 237.27L438.17 239.72L437.91 240.78L437.86 242.7L436.58 242.04L435.97 241.22L435.15 240.77L434.16 240.48L432.38 240.68L431.67 240.5L430.32 238.5L429.33 235.64L427.2 234.02L427.06 232.37L428.7 230.56L428.62 230.03L424.74 228.08L424.12 227.03L424.06 225.37L423.31 223.78L422.37 223.09L420.29 222.81L420.09 222.39L420.35 221.68L422.98 219.14L422.61 217.83L423.34 215.15L424.03 213.72L424.6 213.17L425.94 212.63L429.33 212.28L428.94 210.93L429.58 207.68L429.5 205.92L427.7 204.71L423.43 205.65L421.28 206.99L419.01 203.97L418.1 203.12L415.1 198.97L414.22 199.04L413.38 197.6L413.99 196.41L413.88 195.53L413.63 195.19L412.26 194.95L411.84 195.22L409.91 193.89L410.09 193.18L411.85 192.52L413.6 190.48L413.85 188.89L413.57 187.89L413.88 185.53L415.65 179.37L415.66 178.94L414.98 177.8L414.75 176.72L414.96 173L414.32 171.5L413.85 168.01L413.01 166.98L409.61 165.54L408.39 165.52L408.11 165.2L408.03 164.17L407.44 163.48L405.7 163.19L404.74 163.71L403.34 163.62L400.56 162.11L399.7 162.05L397.74 162.58L395.12 164.43L394.59 165.07L394.1 164.99L408.81 153.16L411.16 153.39L412.33 152.47L413.88 150.3L414.31 149.15L415.86 147.98L416.48 145.1L417.6 144.64L420.04 142.32L420.51 141.11L420.8 139.21L422.4 134.52L424.36 132.98L425.84 131.22L426.67 129.77L427.13 128.49L426.95 126.67L427.74 125.86L426.7 124.28L430.38 121.19L430.25 119.55L430.75 117.17L432.49 115.6L432.85 114.89L433.75 111.87L433.83 110.26L433.4 109.73L432.41 109.89L432.14 109.4L432.19 108.78L433.33 108.63L433.9 107.89L434.61 103.5L434.45 102.12L434.92 101.09L435.69 100.64H436.32L436.56 100.4L436.5 99.8601L436.84 99.1101L437.42 98.5801L438.76 99.5601L439.21 101.4L440.4 101.52L441.17 100.16L441.78 103.09L442.77 103.13L443.06 102.64L443.13 101.7L443.98 101.66L445.67 102.19L446.17 102.88L444.74 104.58L445.41 105.28L445.43 105.83L446.64 103.79L447.13 102.25H447.58L447.98 103.27V103.85L447.11 104.77L446.84 105.76L446.92 108.47L447.18 108.8L447.65 108.92L448.23 108.78L449.19 107.85L448.72 106.85L448.86 106.25L450.18 104.82L451.23 104.57L453.36 105.16L454.86 104.05L454.91 104.97L454.55 105.18L453.42 106.71L454.01 107.29L454.11 106.92L455.36 106.32L455.94 107.11L455.8 108.32L457.43 110.07L458.29 109.63L459.87 110.3L460.64 112.7L460.53 113.65L458.34 116.38L457.96 117.27L458.06 117.93L458.66 116.9L460.41 115.22L461.24 115.19L462.11 116L462.63 117.89L462.36 119.12L461.39 119.31L460.36 120.22L459.2 121.71L459.27 122.48L458.11 124.83L457.49 128.35L457.7 128.69L458.57 128.92ZM459.09 129.37L459.03 128.58L459.56 127.05L459.15 125.98L459.28 125.32L460.19 124.08L460.74 123.89L460.79 126.24L460.57 127.58L459.77 128.18L459.09 129.37ZM452.79 103.61L452.35 103.15L452.27 102.55L453.07 101.43L453.91 101.4L454.59 101.82L454.69 102.16L454.5 102.52L452.79 103.61ZM456.29 107.79L456 107.49L456.06 106.96L457.12 106.07L457.6 106.14L458.1 106.99L457.96 107.6L457.56 107.43L456.29 107.79ZM442.13 102.98L441.92 102.93L442.87 99.3501L443.17 99.4401L443.2 99.6701L442.79 102.73L442.13 102.98Z" fill="black"/>
<path d="M527.5 365.33L526.59 364.78L524.05 363.97L522.47 364.05L521.39 364.37L520.55 364.98L518.37 365.27L517.03 365.14L518.7 367.41L518.68 368.22L517.55 368.11L516.5 367.37L516.19 367.39L514.02 368.7L512.85 370.63L513.15 371.33L514.48 372L515 372.66L514.97 374.58L514.67 376.12L514.88 376.53L516.19 376.88L516.36 378.6L516.04 379.02L515.09 379.26L514.12 379.23L513.32 378.88L511.84 378.97L511.41 379.52L511.9 380.23L512.66 380.51L513.11 380.22L513.63 380.31L514.73 381.58L516 384.39L516.29 386.82L515.75 389.79L514.04 391.88L512.8 392.74L512.54 393.18L512.3 394.9L511.42 397.19L510.31 398.46L509.34 401.7L508.79 402.02L503.64 401.99L501.92 404.05L501.76 404.47L502.35 407.59L501.78 408.89L501.34 411.23L501.63 411.37L499.1 413.72L497.86 413.99L497.3 414.49L498.04 415.19L495.68 421.24L493.78 424.95L493.69 425.7L495.13 425.83L495.42 426.44L495.21 426.96L492.68 427.94L483.17 432.47L481.8 432.67L481.82 432.21L481.33 432.04L478.8 431.77L478.23 431.83L476.61 432.77L475.36 432.93L472.16 433.01L471.8 432.69L471.29 432.77L467.19 434.55L466.14 435.32L464.43 436.09L463.93 435.81L461.34 435.98L458.43 437.32L456.01 438.06L455.33 438.55L454.08 439.28L451.88 439.5L449.95 440.52L448.72 441.76L446.93 442.43L444.55 442.68L442.21 442.6L442.2 442.11L442.55 441.62L442.46 441.27L441.27 441.6L441.09 443.9L441.33 444.13L441.28 444.97L440.53 445.95L439.23 446.27L438.66 445.84L435.05 446.84L434.86 446.31L432.85 446.55L431.73 446.3L429.7 442.99L430.92 442.28L430.4 440.57L428.6 439.74L426.81 438.51L426.1 436.9L426.63 435.34L426.82 431.89L426.56 428.95L428.42 426.23L429.12 424.05L429.17 422.78L428.94 422.41L425.24 421.09L424.24 421.14L423.96 421.5L423.18 421.81L421.57 421.86L421.6 421.01L420.77 419.02L419.47 417.23L419.1 415.02L418.79 414.4L418 413.66L418.19 411.72L419.71 409.69L419.77 409.13L419.37 407.58L417.49 406.37L416.91 405.76L417.2 403.39L417.77 402.38L417.57 401.34L414.3 397.99L413 398.28L412.15 398.92L410.5 398.14L408.12 398.25L407.81 398.86L408.01 399.32L407.57 400.31L404.79 400.99L403.68 400.56L402.17 399.11L401.16 400.36L392.98 401.04L392.52 401.52L392.04 402.71L392.31 405.25L391.9 405.69L390.71 405.17L390.7 402.39L390.45 401.43L390.09 401.04L389.53 400.99L389.27 401.18L388.86 402.31L388.19 403.25L387.65 403.57L387.03 403.55L385.82 401.45L385.49 400.03L385.63 399.12L383.95 398.33L381.77 396.91L379.78 397.5L378.16 397.28L376.49 397.63L372.2 396.67L369.65 396.59L367.92 395.04L367.17 394.9L365.67 395.51L364.24 397.2L362.32 397.57L360.17 398.68L358.95 399.81L359.26 397.19L358.67 393.98L359.66 389.8L360.24 389.55L361.1 390.01L361.46 389.78L361.47 389.44L360.91 388.83L361.48 386.93L363.12 384.83L364.06 384.09L364.51 383.95L365.35 384.11L366.17 383.83L367.01 382.53L366.95 381.53L368.16 379.07L369.57 376.97L371.8 376.43L374.28 375.47L377.99 376.09L381.18 374.45L382.7 374.75L384.01 376.17H384.34L387.25 373.25L391.38 370.61L393.39 371.5L397.25 371.34L398.73 371.62L400.48 371.61L401.06 371.52L401.61 371.04L405.96 372.9L406.66 373.67L411.55 370.93L412.03 369.81L412.89 368.91L414.05 368.71L417.14 366.65L415.95 363.19L416.46 361.3L417.19 360.4L417.36 359.69L417.18 358.69L416.71 358.08L415.13 357.51L414.23 357.98L413.14 356.87L413.57 354.73L416.81 351.72L419.13 349.01V348.41L417.48 343.85L416.06 342.82L415.21 342.48L414.36 341.27L414.77 339.8L415.81 338.55L416.49 336.96L416.18 335.39L416.71 333.87L417.98 333.75L420.27 332.24L423.63 331.34L424.16 330.81L423.47 326.55L422.94 326.36L422.52 325.75L422.48 323.85L423.21 323.15L423.78 322.21L423.29 321.05L422.57 320.95L423.29 317.77L423.66 317.49L424.83 317.26L427.61 318.4L428.01 318.27L428.58 317.73L428 313.96L429.17 312.47L431.59 313.95L432.49 315.71L435.72 316.05L436.72 315.04L437.23 317.45L435.8 320.89L436.2 321.12L437.54 320.21L438.24 319.21L438.96 319.08L441.09 319.46L442.13 318.69L443.98 316.12L444.97 316.27L446.4 315.74L448.21 314.19L449.16 313.02L451.18 312.61L454.55 310.75L455.19 309.64L459.46 306.61L463.28 305.03L465.08 305.12L466.28 305.62L468.46 305.65L470.74 306.18L471.59 306.64L470.3 309.38L470.15 310.27L470.41 311.76L471.02 312.26L476.35 313.72L476.99 313.55L477.8 312.43L479.68 311.54L481.45 311.28L484.18 312.03L485.28 312.57L489.63 316.21L490.61 316.03L492.78 317.65L495.31 318.87L496.24 319.09L496.75 318.88L498.28 320.12L502.67 318.89L503.05 319.07L509.57 325.27L510.01 329.23L510.58 329.02L513.19 329.47L514.66 328.97L515.98 327.98L517.97 328.13L520.7 328.69L522.96 329.77L525.15 330.38L527.27 330.35L530.1 332.82L530.83 333.2L531.72 333.27L532.5 334.29L532.92 335.46L531.45 338.54L526.49 342.76L526.34 345.41L526.9 346.43V346.85L525.88 347.56L523.4 347.32L522.58 348.2L521.76 351.5L521.23 355.9L521.45 356.15L521.8 355.96L522 355.51L522.64 355.27L523.22 356.5L523 358.01L523.15 358.52L527.29 361.58L527.82 362.62L527.83 363.15L527.15 364.5L527.5 365.33Z" fill="#E96117"/>
<path d="M358.95 399.81L358.55 402.27L358.27 402.67L356.77 403.45L355.45 403.49L354.98 403.71L353.76 404.74L351.77 407.42L351.04 408.07L350.03 408.37L349.41 410.05L349.25 412.98L346.66 416.62L345.7 417.14L345.47 417.52L345.78 419.45L345.7 420.4L344.49 422.74L342.49 425L342.84 425.85L342.56 427.06L341.12 428.09L340.72 429.3L338.99 430.99L337.73 433.43L335.78 435.3L328.22 439.83L326.96 440.97L326.22 442.51L325.38 443.59L319.97 445.86L318.86 446.68L317.93 449.01L317.95 450.16L316.5 453.72L315.83 454.4L314.17 455.41L313.06 455.73L312.73 456.08L311.16 464L310.8 464.82L308.42 466.38L305.87 464.05L302.46 462.16L298.47 464.13L297.79 464.88L296.13 465.37L293.55 465.8L291.19 465.34L290.18 464.69L289.71 460.42L289.39 459.72L288.49 458.77L288.26 456.3L288.77 454.96L288.13 454.17L288.04 453.73V450.86L287.15 448.89L286.55 446.15L286.5 445.43L287.09 444.07L287.11 442.46L285.54 441.37L285.16 440.57L285 438.41L283.35 436.59L281.18 436.33L279.67 436.64L277.84 436.35L275.38 434.39L274.82 432.9L273.28 433.23L271.11 435.97L270.11 435.37L268.39 436.18L267.31 436.34L265.57 435.65L263.01 435.16L259.55 435.39L255.89 434.68L255.41 433.77L253.42 433.64L252.53 434.16L250.03 433.28L250.94 426.01L250.51 423.63L251.11 422.21L252.09 420.75L252.69 414.72L252.03 412.39L251.98 410.66L251.22 409.7L250.79 409.61L250.3 410.26L249.66 407L248.87 405.13L247.66 403.11L247.31 401.28L251.34 398.98L252.1 398.1L247.9 394.24L253.28 382.82L254.4 382.76L254.12 380.63L253.38 380.5L256.61 370.17L257.27 369.01L254.18 363.16L254.21 361.25L254.91 361.45L255.93 362.55L258.08 364.07L263.7 362.1L265.75 360.1L267.77 357.15L267.86 355.98L269.26 354.53L271.85 354.56L273.41 354.34L274.18 354.68L275.84 354.17L277.19 352.92L279.21 352.43L280.48 352.63L281.24 353.78L284.03 355.03L286.65 355.5L287.3 355.85L287.57 356.71L288.35 357.73L291.38 358.89L292.64 360L293.88 360.57L298.4 359.94L299.66 359.14L300.15 358.29L301.58 357.68L304.02 357.75L305.61 358.79L305.91 360.16L306.15 360.41L307.14 360.45L309.27 359.57L310.28 359.63L315.9 353.62L317.24 353.49L316.01 360.1L314.21 360.8L312.55 363.63L312.36 364.09L312.51 364.62L313.81 364.73L315.55 366L320.17 366.27L320.74 365.7L323.4 365.62L324.27 365.7L325.44 366.27L326.99 365.96L327.18 367.73L326.92 370.31L327.15 371.42L327.43 371.83L328.09 372.02L329.23 371.35L331.48 372.25L331.56 372.67L330.25 374.43L329.68 375.6L329.42 376.44L329.55 376.77L333.35 377.47L336.13 377.31L338.83 378.99L339.97 379.16L341.41 379.87L342.08 380.48L345.15 382.04L345.83 382.89L349.18 384.23L350.67 384.27L352.57 384.7L354.19 386.25L357.34 386.86L360 389.1L360.24 389.55L359.66 389.8L358.67 393.98L359.26 397.19L358.95 399.81Z" fill="black"/>
<path d="M206.96 296.05L208.43 294.62L212.54 292.05L213.06 289.6L214.49 285.82L215.42 284.74L217.06 284.21L217.49 283.8L218.07 282.96L218.59 280.71L220.25 278.7L220.81 276.46L220.88 274.75L220.3 273.26L220.34 271.21L218.81 267.87L217.91 267.9L217.33 267.39L216.9 264.14L217.04 262.82L218.4 261.74L219.8 259.99L219.97 259.24L218.56 255.65L217.49 255.22L216.38 255.11L212.88 255.2L211.66 254.09L211.9 253.53L194.74 253.48L195.64 244.48L194.14 241.73L193.87 239.97L193.9 239.17L194.9 235.65L194.52 233.72L195.46 232.05L194.63 229.78L194.48 228.39L194.22 227.78L193.44 227.31L193.38 226.96L194.67 221.97L195.43 220.55L194.83 219.31L193.43 218.34L241.28 218.02L242.49 217.29L243.67 212.07L245.05 207.85L244.59 205.91L243.93 204.54L243.83 203.69L244.25 202.84L245.11 202.2L246.31 200.38L246.58 199.37L246.24 198.53L246.3 197.77L246.5 197.16L247.68 195.96L248.85 197.04L251.3 201.1L251.7 202.86L253.07 206.82L254.39 208.75L255.16 210.37L254.93 212.81L255.41 215.21L256.14 217.41L257.67 218.52L260.67 221.27L264.05 222.97L264.28 223.91L264.24 225.01L264.47 225.5L265.42 225.9L266.24 225.73L267.87 226.18L268.41 226.9L268.61 227.98L268.96 228.3L270.33 227.85L274.02 229.34L308.06 231.76L371.03 235.24L370.38 236.26L369.82 238.15L368.72 239.4L368.28 242.54L367.85 243.39L367.48 243.66L365.54 248.95L365 251.92L364.96 254.87L363.08 260.86L363.14 261.72L364.53 263.06L364.37 263.93L363.55 264.82L363.5 265.32L364.6 267.57L364.13 270.88L364.14 272.45L364.66 273.03L365.1 276.08L364.36 278.84L365.34 282.18L366.3 282.69L367.1 282.71L367.18 283.34L366.91 284.47L365.94 285.33L365.59 286.23L365.75 288.95L365.36 290.02L363.36 293.19L362.33 295.82L361.12 296.6L361.24 301.78L359.64 304.87L359.06 307.61L359.54 308.75L359.55 309.55L358.38 312.42L357.54 315.35L356.15 316.78L354.94 317.51L353.71 316.83L352.64 317.09L350.99 318.1L349.07 320.04L348.69 320.78L348.05 324.88L347.34 325.84L345.36 330.03L345.04 330.31L342.32 331.17L339.67 331.3L338.27 333.92L336.52 334.89L336.44 336.43L335.62 337.86L334.34 338.9L333.84 339.91L333.51 341.86L332.26 343.88L330.34 345.65L328.32 346.49L327.62 347.26L327.24 350.17L324.69 354.02L324.29 357.43L324.45 358.14L325.86 360.33L326.04 363.76L326.99 365.96L325.44 366.27L324.27 365.7L323.4 365.62L320.74 365.7L320.17 366.27L315.55 366L313.81 364.73L312.51 364.62L312.36 364.09L312.55 363.63L314.21 360.8L316.01 360.1L317.24 353.49L315.9 353.62L310.28 359.63L309.27 359.57L307.14 360.45L306.15 360.41L305.91 360.16L305.61 358.79L304.02 357.75L301.58 357.68L300.15 358.29L299.66 359.14L298.4 359.94L293.88 360.57L292.64 360L291.38 358.89L288.35 357.73L287.57 356.71L287.3 355.85L286.65 355.5L284.03 355.03L281.24 353.78L280.48 352.63L279.21 352.43L277.19 352.92L275.84 354.17L274.18 354.68L273.41 354.34L271.85 354.56L269.26 354.53L267.86 355.98L267.77 357.15L265.75 360.1L263.7 362.1L258.08 364.07L255.93 362.55L254.91 361.45L254.21 361.25L253.55 360.58L253.23 359.78L253.77 359.07L251.33 356.92L250.05 357.55L249.53 357.5L248.36 356.82L247.91 356.12L245.89 354.71L244 353.95L243.7 353.63L243.4 352.51L243.17 349.58L242.56 347.81L242.37 344.15L243.25 342.51L244.39 341.42L244.73 339.64L244.68 337.75L243.72 337.81L243.32 338.41L242.94 338.57L216.08 337.49L215.03 324.84L209.66 318.71L214.54 318.65L214.19 311.1L211.55 305.78L211.06 303.81L211.32 302.75L211.93 302.2L212.58 300.92L211.14 297.99L208.03 296.95L206.96 296.05Z" fill="black"/>
<path d="M371.03 235.24L308.06 231.76L274.02 229.34L270.33 227.85L268.96 228.3L268.61 227.99L268.41 226.9L267.86 226.18L266.23 225.73L265.41 225.9L264.46 225.51L264.23 225.01L264.27 223.91L264.04 222.97L260.66 221.27L257.66 218.51L256.12 217.4L255.4 215.2L254.92 212.81L255.15 210.37L254.38 208.74L253.05 206.81L251.68 202.86L251.29 201.1L248.84 197.04L247.66 195.96L247.09 195.4L246.94 193.44L246.3 192.18L244.71 190.62L243.64 190.04L243.27 189.47L242.44 187.13L242.47 186L243.05 185.03L244.5 183.9L245.28 182.59L275.18 118.35L273.37 116.68L273.5 115.9L273.31 115.42L271.92 115.77L271.07 116.38L269.2 115.6L268.1 113.43L265.41 111.98L264.14 110.64L264.06 110.04L262.74 109.22L261.37 109.07L259.12 108.42L256.74 107.11L254.86 106.44L253.51 105.35L252.88 104.45L248.3 101.91L243.66 98.1398L243.36 97.6998L243.32 96.7698L242.77 94.9398L240.93 93.7098L240.23 93.8998L239.87 93.6998L238.04 91.7198L238.09 89.6098L238.44 88.9198L238.26 88.5098L236.57 87.6598L236.33 86.9798L236.15 84.7098L236.58 83.2598L236.18 78.3998L234.59 61.4298L235.34 61.7498L235.77 62.3298L235.75 62.8098L236.2 63.2098L237.12 63.4898L238.49 62.7798L238.96 61.9698L241.67 62.1998L242.48 61.1498L241.94 59.3398L243.73 58.9798L245.14 57.3498L247.78 58.3598L249.66 58.3898L250.2 56.8698L253.53 55.2498L255.5 55.6398L256.66 55.5298L257.15 55.2798L258.35 53.7998L258.75 52.3998L260.21 51.2998L261.07 51.1898L261.72 51.6498L263.83 50.5198L264.24 50.6298L264.61 51.6198L265.34 52.0698L267.37 52.5498L268.98 52.7998L269.54 52.1998L271.21 51.8098L271.99 52.0898L272.81 52.0798L273.67 51.7398L275.91 52.0398L280.58 53.4198L281.54 53.2798L282.54 52.4098L282.51 50.1298L280.44 47.6298L279.2 46.9998L279.69 45.3198L281 43.8698L281.28 42.7598L281.59 42.5898L282.3 42.7798L283.13 43.5398L285.48 44.6498L297.1 42.3198L298.67 44.0098L299.69 44.0698L300.13 43.7798L300.75 44.3498L301.12 46.6498L300.5 47.9498L300.25 52.4898L300.49 53.9298L300.8 54.4698L301.97 54.4898L303.05 54.1998L306.44 54.5698L307.73 55.0598L309.66 56.1098L310.33 56.9098L310.82 58.1898L312.01 58.3098L313.15 59.1498L313.95 60.1298L314.79 60.3998L316.12 60.2598L316.5 59.8398L317.44 59.6998L320.28 62.3598L320.96 62.3298L321.45 63.5098L320.77 63.7398L320.58 64.4598L321.34 67.2898L323.36 69.5498L325.93 70.2798L326.1 70.6098L325.67 73.7498L325.86 75.8598L326.53 77.3698L327.15 77.9298L327.74 79.7398L327.61 81.3198L329.11 84.7998L329.93 84.9898L330.71 84.6298L333.64 87.9098L333.56 90.3398L333.97 91.2798L334.92 91.4698L335.25 91.9398L335.56 93.5198L335.35 94.2098L335.46 95.5098L337.33 96.8998L337.76 98.3998L339.21 99.4298L342 100.11L343.3 99.9898L344.07 99.6498L345.01 99.7098L344.48 100.45L344.77 102.04L344.6 102.57L343.31 103.68L341.92 103.85L341.42 103.67L340.58 102.88L339.92 102.73L336.54 104.31L336.17 104.85L334.57 105.57L333.94 105.55L332.39 106.14L332.43 106.72L338.89 105.66L339.77 106.32L339.9 106.78V107.44L339.28 107.94L339.58 108.3L340.21 108.1L341.07 107.1L342.09 107.09L342.62 106.82L343.22 106.94L344.29 106.52L345.43 105.95L348.71 103.61L350.21 103.26L352.05 102.45L355.21 100.61L355.75 99.6098L356.42 99.0898L358.51 98.0798L359.17 97.3598L358.92 96.6898L359.13 96.2798L360.26 95.9998L361.35 96.0598L361.76 96.2698L362.14 100.07L361.62 102.65L361.95 104.27L362.76 105.87L364.07 107.22L364.37 108.86L364.25 109.33L362.41 111.17L361.94 111.3L361.07 110.78L359.25 110.26L357.99 109.95L357.06 110.09L354.93 109.05L354.67 107.93L353.79 107.4L351.51 111.22L350.9 113.59L351.58 116.56L352.06 117.2L352.98 117.82L351.97 116.68L351.54 113.99L351.66 113.47L354.23 109.25L356.54 110.43L356.65 110.88L359.18 113.33L358.93 115.35L358.19 115.9L358.59 118.23L359.11 119.36L360.23 120.11L360.97 120.26L361.49 120.75L361.15 120.11L360.38 119.87L359.18 118.83L358.96 118.15L359.3 113.95L360.12 112.76L361.55 113.49L362.38 114.69L362.29 115.48L363.49 116.34L363.74 116.05L362.74 114.79L361.82 112.69V112.25L364.08 109.93L365.7 110.02L367.63 110.66L367.97 111.22L367.36 111.81L367.68 112.09L368.16 112.12L369.19 111.95L370.52 111.05L374.61 110.09L375.38 110.29L377.12 111.35L380.29 110.93L381.36 110.52L382.38 109.51L383.36 108.92L385.1 108.41L385.87 108.48L385.93 109.23L383.89 113.25L383.65 114.75L383.19 115.82L382.36 116.85L382.35 117.73L382.93 119.15L382.61 121.62L383.49 120.43L383.5 119.03L385.04 116.03L386.17 112.84L387.29 111.28L387.56 111.01L388.32 110.96L388.9 110.61L390.72 110.38L391.6 109.03L393.11 107.34L394.47 105.08L394.99 104.62L395.78 105.11L396.4 104.65L398.02 106.99L399.21 107.58L399.16 106.84L398.81 106.09L399.43 105.08L402.94 104.57L401.91 104.25L398.4 104.71L398.09 104.5L398.38 102.07L398.89 101.78L399.56 102.16L400.58 102.27L401.65 99.1698L400.97 97.7798L401 97.0998L402.17 95.2898L405.01 92.8098L405.37 92.7298L406.48 93.8698L409.41 91.7798L409.87 91.7098L410.27 92.1598L410.37 92.7298L410.05 93.3998L411.12 93.2398L411.93 92.6598L412.29 91.8798L412.92 91.6898L413.2 91.8398L413.94 93.2298L415.27 94.4298L415.47 93.8698L415.36 93.4898L414.4 92.9998L414.26 92.7098L414.13 91.5098L414.3 91.0898L414.74 90.8998L417.02 91.1598L418.2 91.8098L418.82 92.8298L420.45 93.5398L422.1 92.7598L422.63 94.8998L422.13 95.2098L422.1 95.7998L423.02 95.2798L424.18 92.9298L424.56 93.1598L424.33 94.4898L424.74 94.9298L427.25 94.6698L427.7 95.3198L428.16 96.9998L427.56 97.9498L428.41 97.4498L428.67 97.8198L430.56 97.9598L434.09 96.7198L433.78 98.2998L433.03 100.13L434.5 99.6398L435.09 99.0198L435.72 100.64L434.95 101.09L434.48 102.12L434.64 103.5L433.93 107.89L433.36 108.63L432.22 108.78L432.17 109.4L432.44 109.89L433.43 109.73L433.86 110.26L433.78 111.87L432.88 114.89L432.52 115.6L430.78 117.17L430.28 119.55L430.41 121.19L426.73 124.28L427.77 125.86L426.98 126.67L427.16 128.49L426.7 129.77L425.87 131.22L424.39 132.98L422.43 134.52L420.83 139.21L420.54 141.11L420.07 142.32L417.63 144.64L416.51 145.1L415.89 147.98L414.34 149.15L413.91 150.3L412.36 152.47L411.19 153.39L408.84 153.16L394.13 164.99L394.62 165.07L396.91 165.88L398.78 165.64L400.07 165.76L401.09 167.42L401.48 167.73L402.35 167.87L403.61 169.04L403.57 169.67L403.2 170.34L402.48 170.71L401.51 170.78L401.22 171.06L401.31 172.47L402.32 173.81L401.4 176.56L400.76 177.04L399.3 177.5L399.05 177.96L399.34 179.16L399.15 180.5L397.85 180.65L396.34 181.99L395.49 183.26L395.64 184.77L395.4 185.27L392.9 186.47L389.49 187.61L387.02 189.39L386.83 189.74L387.26 191.93L387.32 194.6L386.04 196.7L384.63 198.38L384.48 198.95L384.65 199.83L385.24 200.79L386.91 202.53L387.66 202.85L387.81 203.15L387.15 207.19L385.39 212.34L384.31 213.15L382.61 216.39L382.43 217.38L381.49 218.92L380.75 219.77L379.7 219.93L378.33 220.85L377.3 222.77L376.09 224.45L374.91 225.54L373.76 227.12L372.63 231.58L371.03 235.24ZM392.19 104.93L387.67 106.89L384.28 107.41L382.26 107.1L381.61 108.23L379.77 109.42L379.05 108.81L378.44 107.28L378.21 107.56L378.63 108.79L378.29 109.6L377.58 110.01L373.81 108.37L373.01 109.09L368.82 110.35L365.62 109.78L364.81 109.17L364.57 107.32L364.34 106.91L363.23 105.89L362.17 104.29L361.96 102.51L362.48 99.7598L363.1 99.3798L364.86 99.7398L365.79 98.9898L365.87 98.4298L364.57 98.8598L363.35 98.7298L362.41 98.0198L362.23 96.9698L362.57 91.8898L363.3 91.1298L363.65 91.8798L365.41 92.4798L365.96 92.4198L365.5 91.9998L364.23 91.7798L363.33 89.6198L363.69 87.9398L364.58 85.9698L365.91 84.6398L366.87 84.0698L368.21 83.5798L369.53 83.4498L372.99 83.9698L380.2 85.7398L383.9 85.2798L384.01 84.9798L385.15 84.3598L387.31 83.9898L390.2 84.2798L393 85.0998L399.48 85.9498L400.11 86.4198L400.06 87.6498L399.36 88.3898L398.68 89.8898L398.32 92.5398L397.46 95.8398L396.17 96.5198L395.82 97.2098L396.05 98.3998L394.07 100.98L392.68 104.48L392.19 104.93ZM344.98 104.76L344.23 104.25L345.33 102L345.24 100.21L345.49 99.9998L347.82 99.5198L348.72 98.6598L348.87 98.1598L348.67 95.8198L349.53 93.2398L350.79 91.7498L353.08 90.2798L355.95 90.0798L356.67 92.4398L355.57 94.6298L354.72 97.6698L353.62 98.3398L352.28 100.37L351.5 101.09L346.56 104.4L344.98 104.76ZM373.46 81.8598L372.43 81.6098L369.98 81.6898L369.19 81.5298L368.9 81.2698L368.52 80.1798L368.53 78.9398L370.04 78.5198L371.93 78.5598L374.12 77.2698L378.93 76.6698L379.7 76.9298L380.38 77.6098L380.2 78.6298L377.64 80.0198L375.86 82.4998L374.76 82.9998L373.46 81.8598ZM378.25 81.8598L380.11 80.6598L382.09 80.6898L383.74 81.3098L384.27 82.2998L384.32 82.9198L383.44 83.6898L380.59 83.9698L379.42 84.2898L377.16 83.3998L376.96 82.8698L378.25 81.8598ZM361.27 86.2498L360.77 85.9898L360.16 86.0298L358.62 85.3398L358.83 84.1798L359.47 83.2598L361.39 82.8598L363.75 81.9598L365.07 82.0398L365.87 82.7198L365.96 82.8498L364.03 84.4598L362.96 84.7998L361.27 86.2498ZM370.69 76.5598L369.87 76.2598L369.7 74.5998L369.85 73.9998L371.02 72.6898L373.47 71.7698L373.72 71.8898L374.25 72.5698L374.29 73.4598L372.34 75.4498L370.69 76.5598ZM356.86 96.7798L356.72 96.3698L356.91 95.4398L357.95 92.6298L360.54 90.9398L361.26 90.6598L361.95 90.7998L361.79 92.5898L360.23 93.0298L358.61 95.2198L356.86 96.7798ZM367.77 79.2098L366.58 78.8998L366.28 78.4198L367.16 77.4598L367.87 73.5098L368.76 72.2798L369.05 72.4098L369.12 72.7298L369.1 75.2098L369.7 77.0798L369.38 77.9598L368.35 78.3598L367.77 79.2098ZM352.96 89.3998L352.69 89.2098L352.81 88.5998L353.36 88.2398L354.55 86.5298L355.31 84.9898L356.04 84.3298L357.49 83.7898L357.29 85.2798L356.89 86.2798L355.17 87.9398L352.96 89.3998ZM366.83 82.3698L366.23 82.2198L365.39 81.5098L364.43 79.8698L364.38 79.4898L364.61 79.1998L365.42 78.6198L367.27 79.4598L367.56 79.8898L367.8 81.9798L366.83 82.3698ZM361.45 112.93L360.8 112.82L359.92 112.3L359.23 112.76L358.48 112.48L356.8 110.74V110.13L358.08 110.12L361.14 111.44L361.45 112.93ZM340.3 107.39L340.34 106.36L340.14 106.06L340.74 105.07L343.1 104.19L343.88 104.57L344.75 105.43L344.46 105.78L343.43 106.25L340.89 106.66L340.3 107.39ZM353 100.7L352.82 100.67L352.83 100.32L353.37 99.3798L355.16 97.7598L355.58 96.5198L355.63 95.2198L355.87 94.9198L356.19 95.3598V96.8698L355.3 99.5998L354.68 100.25L353 100.7ZM359.3 90.7998L360.95 87.8398L361.83 87.6298L362.54 87.8198L362.81 88.6898L362.23 89.3998L359.3 90.7998ZM390.72 109.77L389.88 109.42L389.54 108.36L390.58 106.64L391.65 106.31L391.84 106.41L391.82 107.15L391.08 109.39L390.72 109.77ZM357.24 90.2998L356.7 90.0998L357.02 88.0598L358.35 86.2498L358.58 86.2898L359.87 87.1698L359.86 87.4198L358.31 88.0598L357.24 90.2998ZM359.47 95.3298L360.19 95.3598L359.79 95.8098L358.85 96.1198L358.74 97.2398L357.95 97.9498L356.26 98.7898L356.1 98.6098L356.37 97.7798L356.84 97.1498L358.57 95.4798L359.47 95.3298ZM336.91 105.54L336.36 105.35L336.29 105L336.72 104.6L340.28 103L340.82 103.7L340.81 103.9L339.41 104.63L336.91 105.54ZM400.44 100.76L399.41 100.57L398.59 99.7798L399.46 98.5298L400.8 98.5198L400.99 99.7098L400.89 100.3L400.44 100.76ZM363.19 81.8598L360.83 82.5598L360.24 82.5698L360.06 82.3598L361.09 81.3198L362.13 80.8098L363.17 80.9798L363.61 81.3198L363.76 81.5498L363.61 81.7598L363.19 81.8598ZM357.92 90.4498L357.84 89.6898L358.09 89.1898L360.57 87.7298L359.67 89.7298L358.86 90.3598L357.92 90.4498ZM360.06 94.9798L359.61 94.8598L359.54 94.6298L360.32 93.1298L361.51 93.1498L361.39 94.4998L360.06 94.9798ZM388.1 110.81L387.82 110.58L388.72 108.98L389.4 108.58L389.63 109.33L390.14 109.7L389.88 110.22L389.45 110.56L388.82 110.38L388.1 110.81ZM361.44 87.4898L360.55 87.4198L360.57 87.2298L362.93 85.3898L362.97 86.3498L362.74 86.9798L362.49 87.3198L361.44 87.4898ZM428.9 97.7098L428.52 97.1798L428.71 96.4198L429.73 95.5098L429.98 95.6598L430.21 97.4098L428.9 97.7098Z" fill="black"/>
<path d="M558.28 227.19L557.06 224.15L557.05 223.21L554.94 222.35L554.44 221.98L553.99 221.15L554.6 220.26L554.58 219.64L554.13 219.32L553.13 219.33L552.7 219.77L552.41 221.51L551.98 221.66L551.59 221.4L551.05 219.75L549.47 218.6L546.48 218.2L544.12 217.43L542.77 216.62L541.94 215.18L540.45 214.62L539.86 214.73L537.33 216.19L535.68 216.63L534.91 218.68L532.68 219.13L532.39 219.38L532.64 220.74L532.47 221.33L531.37 222.57L528.98 223.6L528.34 223.54L527.57 223.01L526.81 223.18L526.31 224.05L525.54 227.62L522.67 228.5L521.85 229.42L520.89 229.65L519.05 229.03L519.97 227.35L519.71 225.35L517.5 224.44L516.78 222.5L516.84 219.77L516.4 219.26L513.59 217.88L511.39 217.59L510.23 217.85L509.33 217.45L511.95 216.18L513.92 214.47L514.46 213.6L516.75 212.27L517.72 211.99L521.61 208.12L522.35 206.36L522.41 204.09L522.12 203.55L520.5 201.97L520.57 199.78L519.97 198.65L519.91 197.7L520.02 197.25L520.54 196.92L522.33 196.76L527.26 196.96L528.15 197.2L529.78 197.01L531.92 196.21L533.21 196.11L536.29 196.53L539.14 198.43L540.97 199.26L541.43 200.25L542.44 201.32L543.8 201.8L544.58 202.37L545.21 204.01L546.86 203.96L548.4 201.67L549.47 200.84L551.06 200.35L551.46 200.44L552.86 202.35L553.85 202.68L555.36 202.36L556.29 201.63L556.67 201.71L557.3 202.95L557.25 203.63L558.02 203.96L560.65 202.99L562.28 202.76L563.8 201.12L566.5 199.24L567.55 198.93L569.03 198.06L569.96 196.55L572.18 195.29L573.66 194.88L577.16 196.8L577.66 198.19L577.55 198.49L574.55 199.56L574.18 200.34L574.22 200.81L574.94 202.68L574.77 203.11L572.24 205.75L572.2 206.2L573.71 205.95L574.15 205.66L575.29 205.98L575.47 206.28L575.23 206.77L575.58 209.01L576.53 209.95L578.13 210.74L579.78 209.9L581.12 209.74L582.9 208.21L583.3 207.73L583.29 207.19L582.9 206.46L583.44 205.7L584.33 205.01L586.15 204.91L586.7 204.27L588.31 203.39L592.19 203.65L594.37 203.36L595.17 202.83V202.23L596.31 202.25L598.32 201.8L600.22 200.77L600.67 198.97L602.15 197.69L604.46 196.62L607.11 196.83L607.93 197.09L610.43 199.15L611.31 199.38L611.86 200.6L610.59 202.32L610.48 202.87L610.49 203.35L611.19 203.72L611.46 204.22L611.65 205.28L609.69 211.66L606.44 220.61L606.17 220.4L603.27 220.13L601.35 219.32L599.88 219.51L597.32 220.8L595.08 219.95L593.08 220.19L591.53 221.43L591.41 221.88L589.23 224.17L587.42 225.28L586.26 225.23L584.4 226.29L583.23 226.4L580.09 226.11L577.59 226.76L575.68 226.28L573.9 225.23L572 223.11L569.45 221.09L568.37 221.21L566.7 220.91L565.7 219.69L564.88 220.29L564.79 220.98L562.41 224.27L560.24 225.03L559.6 226.12L558.28 227.19Z" fill="black"/>
<path d="M505.7 126.91L507.01 127.03L507.7 126.8L509.94 127.31L510.93 128.16L511.25 128.76L511.14 129.56L510.05 131.41L508.47 133.38L508.29 134.84L508.58 136.13L510.38 140.85L513.53 147.27L513.97 149L515.33 150.59L515.31 151.35L514.57 152.71L515.36 156.58L514.88 158.18L515.88 160.19L516.48 163.18L515.89 164.76L515.09 165.34L516.01 166.03L516.12 166.41L517.06 174.57L516.82 175.02L517.58 177.59L518.63 182.79L519.64 185.46L520.95 186.11L523.51 186.58L524.28 187.74L524.27 188.43L522.77 190.68L521.63 193.79L521.71 194.76L522.39 195.44L522.33 196.76L520.54 196.92L520.02 197.25L519.91 197.7L519.97 198.65L520.57 199.78L520.5 201.97L522.12 203.55L522.41 204.09L522.35 206.36L521.61 208.12L517.72 211.99L516.75 212.27L514.46 213.6L513.92 214.47L511.95 216.18L509.33 217.45L508.88 218.61L507.38 220.91L506.33 221.58L505.54 221.4L503.54 221.78L503.65 224.18L501.79 225.98L501.47 225.93L500.85 225.31L498.69 225.3L497.87 226.28L497.1 226.64L494.37 226.98L492.86 228.32L492.04 229.54L490.34 229.64L488.86 230.28L485.86 230.39L485.04 230.11L484.85 229.83L484.98 229.17L483.27 228.19L481.94 227.8L480.55 228.35L478.42 228.78L478.1 228.6L477.69 227.67L476.19 227.21L474.24 227.23L471 228.88L470.94 229.81L473.18 234.25L473.3 235.4L473.01 237.97L472.76 238.88L472.04 239.74L469.09 244.79L466.12 247.21L464.77 247.63L463.29 247.1L461.95 246.93L459.75 247.68L458.58 248.57L457.91 249.44L456.77 249.82L456.02 251.27L455.69 251.48L453.58 251.3L451.78 251.82L447.6 249.97L445.83 247.48L445.3 245.27L444.64 244.23L443.2 242.89L440.87 242.91L437.93 242.7L437.98 240.78L438.24 239.72L439.39 237.27L439.52 230.91L440.28 229.51L440.31 229L438.58 225.94L438.11 222.75L437.41 220.81L438.14 218.81L439.84 217.41L441.04 214.93L441.17 213.42L441.51 212.59L441.81 212.38L443.25 209.64L443.88 207.32L444.27 204.35L445.25 201.37L447.38 199.42L450.1 198.66L452.71 198.35L453.78 197.98L455.48 196.45L456.53 196.41L457.87 195.89L460.73 193.32L463.07 192.41L465.08 190.41L465.71 189.54V189.08L467.61 187.16L468.11 186.94L468.95 186.7L469.18 187L470.3 186.74L471.3 186.14L472.76 185.95L473.77 186.16L476.28 187.98L477.79 187.88L480.23 187.02L481.06 186.98L481.71 187.26L483.99 186.97L485.2 185.66L485.7 184.2L485.82 182.99L486.11 182.55L486.5 180.35L486.37 179.5L486.2 179L484.59 178.09L482.81 176.06L482.3 173.76L482.19 171.65L482.36 169.17L486.46 164.74L486.67 164.19L486.77 161.76L486.22 158.78L484.64 155.98L485.78 153.11L486.06 151.64L485.68 150.37L484.45 149.53L484.1 147.61L484.87 146.56L485.51 146.39L486.33 144.41L488.22 142.56L489.1 140.73L489.06 138.94L491.98 135.53L492.79 135.69L496.1 135.23L500.23 131.26L502.02 128.99L502.41 127.46L501.77 126.93L501.55 126.21L502.01 124.77L502.74 124.89L504.21 125.76L504.72 126.27L504.59 126.58L505.7 126.91Z" fill="black"/>
<path d="M396.75 499.4L391.51 499.37L391.18 499.81L389.44 500.05L388.68 499.98L388.57 499.59L387 500.16L385.65 501.59L382.3 503.72L380.86 503.56L379.63 502.94L376.5 500.34L375.47 499.95L374.71 499.94L371.87 500.67L369.54 500.84L368.73 500.81L367.31 500.05L366.2 500.19L364.67 500.84L364.08 502.31L363.35 503.18L361.48 504.16L357.91 503.75L355.91 504.9L355.19 505.67L354.5 507.26L355.35 510.25L354.48 511.11L353.56 511.13L352.81 511.51L352.64 512L351.31 510.11L347.06 510.24L343.3 509.81L341.72 508.63L341.56 508.22L340.53 507.59L336.27 507.23L330.98 505.55L328.64 506.12L325.95 506.09L323.93 504.68L323.61 504.17L322.55 503.93L322.02 503.92L321.31 504.29L317.68 504.27L317.46 503.06L314.93 498.88L314.95 496.29L313.96 493.41L310.54 491.04L309.45 492.17L307.33 492.06L306.23 492.49L305.16 493.39L303.7 492.31L302.88 492.37L302.6 490.17L303.26 488.6L304.33 487.33L305.55 485.15L305.61 484.81L305.12 484.06L305.14 482.82L306.04 479.18L307.3 476.16L307.05 473.86L308.33 471.48L308.12 470.46L307.28 469.58L306.97 467.98L307.63 466.92L308.42 466.38L310.8 464.82L311.16 464L312.73 456.08L313.06 455.73L314.17 455.41L315.83 454.4L316.5 453.72L317.95 450.16L317.93 449.01L318.86 446.68L319.97 445.86L325.38 443.59L328.64 441.3L332.47 441.95L336.48 441.84L339.75 442.13L340.96 441.51L341.31 440.91L342.04 440.54L343.21 440.83L344.69 441.61L347.21 442.07L349.85 443.16L351.16 443.29L352.23 442.75L354.81 442.74L355.59 443.74L357.34 444.58L360.85 445.38L361.48 445.89L362.19 447.21L363.92 447.28L364.34 446.94L365.99 447.09L366.65 447.63L371.96 447.76L374.93 446.91L376.06 448.46L379.65 451.29L380.54 453.05L380.55 455.79L380.16 456.37L380 457.18L380.38 459.02L381.68 460.53L381.6 462.29L381.24 462.85L382.73 465.85L383.94 467L384.61 467.28L385.11 467.96L385.06 468.85L385.98 470.82L386.58 471.11L386.83 471.55L386.58 472.6L385.31 474.73L385.63 476.77L386.23 477.15L387.24 477.36L389.62 477.24L393.04 476.71L393.54 477.1L395.12 476.91L396.71 477.04L398.32 478.3L398.18 478.71L397.29 479.36L396.6 482.66L396.95 483.44L398.02 483.97L398.67 483.12L399.77 480.36L400.53 480.19L402.67 480.77L402.27 482.72L403 486.02L404.42 486.6L404.58 487.92L403.23 488.94L402.62 490.42L402.07 490.3L402.34 488.36L403.78 487.41L402.37 487.69L401.48 488.18L400.61 488.16L400.27 487.77L399.7 487.6L399.16 487.97L398.88 488.9L399.4 489.7L398.67 490.66L398.37 490.76L395.89 490.23L395.1 489.69L394.65 489.81L394.47 490.71L394.81 491.08L396.42 491.64L397.82 491.39L399.95 491.99L400.22 492.47L399.25 493.15L397.71 495.93L396.47 496.7L394.05 497.27L393.85 497.72L396.8 497.52L396.95 498.71L396.75 499.4Z" fill="black"/>
<path d="M468.35 450.28L468.28 449.5L468.66 449.23L471.85 449.45L474.44 448.86L471.91 447.31L470.51 446.81L467.7 447.49L466.34 449.09L465.31 449.41L464.61 449.36L463.26 447.21H462.78L461.88 447.63L460.92 448.69L457.77 449.49L457.43 450.4L457.24 452.3L459.43 452.43L460.5 453.44L459.35 454.52L458.41 454.35L456.99 454.52L456.51 454.26L454.88 452.53L454.83 452.12L455.92 448.62L457.01 447.47L459.36 446.46L459.86 446.61L462.63 446.25L464.13 445.54L465.78 443.39L465.03 441.75L463.33 441.74L460.18 442.27L458.41 441.88L457.18 440.29L456.62 439.12L455.35 438.58L456.03 438.09L458.45 437.35L461.36 436.01L463.94 435.84L464.44 436.11L466.16 435.34L467.21 434.57L471.3 432.78L471.82 432.71L472.18 433.02L475.38 432.95L476.63 432.78L478.26 431.84L478.83 431.78L481.36 432.05L481.85 432.22L481.83 432.69L483.21 432.49L492.72 427.96L495.25 426.97L495.46 426.45L495.18 425.84L493.74 425.71L493.83 424.96L495.72 421.25L498.08 415.21L497.35 414.5L497.91 414.01L499.15 413.74L501.68 411.38L503.61 412.14L504.28 416.85L506.78 417.98L511.11 418.99L514.1 418.62L515.72 419.68L515.64 420.95L514.7 422.56L514.48 424.69L515.62 431.47L515.12 432.15L512.04 433.9L506.07 435.84L503.24 437.56L499.74 441.25L499.63 442.91L499.94 444.1L499.75 445.72L499.02 447.2L497.2 447.71L490.65 447.54L484.86 448.24L482.47 447.78L481.98 447.4L481.92 446.72L482.95 445.24L483.62 443.79L483.53 443.17L482.75 442.99L479.96 444.14L479.7 444.83L480.01 445.62L481.39 446.79L481.64 447.76L481.05 448.28L479.42 448.79L477.85 448.76L469.81 449.83L468.35 450.28ZM463.24 452.27L462.57 451.3L464.68 449.75L466.54 450.69L466.97 451.39L464.51 451.89L464.1 451.54H463.63L463.24 452.27Z" fill="#E88E09"/>
<path d="M187.32 290.95L186.03 289.5L185.59 287.62L184.03 287.1L183.17 287.42L181.36 287.5L177.29 285.69L177.28 285.29L176.62 284.68L175.35 285.27L173.37 283.59L171.85 282.62L170.99 281.16L170.71 279.77L169.67 279.38L167.9 280.5L166.68 280.47L165.27 279.67L164.4 278.34L161.27 276.76L159.31 276.59L158.17 277.13L157.27 277.98L155.84 277.81L155.53 277.51L153.39 277L150.33 276.72L149.57 276.29L148.39 275.1L148.09 273.13L146.51 272.64L144.62 271.67L143.8 269.95L143.51 269.75L140.79 269.47L140.41 269.12L139.57 265.41L138.69 264.52L138.21 265.68L137.55 265.36L137.28 264.72L137.9 263.19L137.06 261.67L135.7 261.28L134.44 257.81L134.27 256.15L135.82 253.24L135.61 251.58L134.45 249.61L133.7 247.45L133.64 245.16L134.26 244.66L134.64 243.29L135.68 242.24L136.04 240.77L135.8 239.28L135.38 238.39L135.29 236.86L135.83 235.21L134.66 233.03L133.64 232.65L132.55 233.63L132.49 234.14L131.65 235.1H131.08L128.9 234.08L123.72 234.16L118.11 235.94L116.42 235.93L114.94 236.41L111.97 235.15L115.23 232.59L117.15 232.01L118.7 230.2L118.85 229.64L118.69 228.35L122.65 228.61L125.52 228.28L126.24 228.65L128.55 230.98L128.92 230.96L130.14 230.17L130.27 229.45L130.68 228.92L131.76 228.42L132.53 228.55L133.9 228.16L135.2 226.95L137.04 225.93L137.42 226.02L138.06 228.28L138.74 228.81L139.42 228.73L141.96 225.57L141.7 223.82L142.23 222.98L143.98 221.72L144.44 221.74L145.28 222.29L147.07 222.39L148.27 221.32L150.4 220.94L154.27 221.4L154.03 219.94L154.14 218.13L156.2 216.92L157.01 215.77L157.37 214.75L157.2 214.3L156.3 213.6L156.35 212.93L157.54 211.34L160.02 210.81L160.28 210.59L160.19 209.42L161.91 208.92L163.29 206.36L174.08 206.3L176.23 207.43L176.68 207.92L177.48 209.83L178.81 211.1L181.35 212.08L182.6 215.35L183.06 215.56L184.04 215.43L184.66 215.63L185.34 218.51L188.58 219.99L189.26 219.8L189.8 218.06L191.72 216.98L193.11 217.26L193.47 217.64L193.43 218.34L194.83 219.31L195.43 220.55L194.67 221.97L193.38 226.96L193.44 227.31L194.22 227.78L194.48 228.39L194.63 229.78L195.46 232.05L194.52 233.72L194.9 235.65L193.9 239.17L193.87 239.97L194.14 241.73L195.64 244.48L194.74 253.48L211.9 253.53L211.66 254.09L212.88 255.2L216.38 255.11L217.49 255.22L218.56 255.65L219.97 259.24L219.8 259.99L218.4 261.74L217.04 262.82L216.9 264.14L217.33 267.39L217.91 267.9L218.81 267.87L220.34 271.21L220.3 273.26L220.88 274.75L220.81 276.46L220.25 278.7L218.59 280.71L218.07 282.96L217.49 283.8L217.06 284.21L215.42 284.74L214.49 285.82L213.06 289.6L212.54 292.05L208.43 294.62L206.96 296.05L206.22 296.01L203.63 294.46L202.36 293.03L195.28 293.99L193.96 293.56L193.71 293.26L190.33 293.92L189.85 293.76L189.33 292.41L187.32 290.95Z" fill="black"/>
<path d="M234.61 61.4L236.21 78.37L217.72 78.3L217.75 78.98L215.42 82.24L213.76 85.27L213.69 86.4L212.54 89.04L212.43 89.7L212.66 90.43L213.8 91.84L213.78 92.37L213.36 92.76L211.33 93.31L209.92 94.72L208.67 95.18L206.85 94.95L205.93 92.44L204.06 90.4L201.23 89.47L199.63 89.53L199.08 90.42L196.99 91.13L195.71 91.82L194.69 93.08L193.87 96.05L194.24 97.85L193.99 99.58L193.24 101.87L193.68 103.98L191.32 102.94L189.98 103.36L189.45 103.29L188.41 101.25L186.93 99.6L184.97 98.29L184.45 98.25L179.44 93.83L179.58 92.69L181.42 93.02L182.56 91.7L182.62 91.12L181.49 86.79L180.91 85.89L179.69 85.05L178.81 82.88L178.52 77.9L179.09 76.94L179.86 73.9L179.2 72.32L178.84 70.73L180.46 69.27L180.41 68.82L179.54 67.7L179.35 65.44L177.69 60.68L174.96 56.94L175.67 55.44L176.58 52.12L176.09 51.46L174.14 50.51L172.78 50.4L171.9 50.61L170.93 50.24L169.72 49.07L169.66 48.11L169.03 48L167.9 48.42L167.29 48.41L166.54 48.07L165.82 47.29L166.12 46.83L166.35 44.55L166.05 44.33L162.68 44.1L158.93 44.24L155.62 43.54L155.42 42.94L156.22 41.18L156.34 39.7L155.61 37.93L153.67 34.39L152.94 32.33L152.47 28.61L153.26 27.13L153.18 26.17L151.34 24.17L149.18 23.11L146.37 20.33L145.31 18.52L145.02 17.56L143.88 16.91L143.63 16.52L143.66 15.68L143.95 15.35L144.85 15.42L145.97 16.08L146.91 17.81L147.52 17.9L150.91 17.4L152.26 17.5L154.17 18.09L154.78 19.29L155.33 21.22L155.87 21.57L156.83 21.49L157.57 20.84L158.52 20.44L161.7 20.6L162.17 20.65L163.48 21.86L164.08 22.01L164.6 21.87L165.21 20.31L166.52 20.45L167.97 21.38L171.9 25.95L172.95 26.52L173.66 26.63L175.17 25.95L175.91 24.82L176.01 23.98L175.18 21.22L175.54 19.48L176 19.2L177.93 19.15L178.94 18.05L180.49 16.96L181.24 17.01L185.14 18.35L185.73 18.18L186.53 17.46L187.56 17.16L188.69 17.51L189.72 17.3L191.06 16.02L192.06 15.77L193.21 16L194.32 15.93L195 15.08L195.05 13.73L198.08 11.92L200.41 12.11L203.17 11.72L204.06 10.59L204.15 9.88L204.74 8.76L205.49 8.63L207.34 7.73L208.44 6.69L209.55 4.98L208.35 1.42L207.18 1.06L207.82 0.88L209.25 0.95L210.05 1.27L213.62 1.17L214.68 0.22L215.42 0L216.79 0.42L217.32 1.73L218.36 2.53L218.84 3.9L218.17 8.8L217.45 10.18L216.2 10.88L216.26 11.71L217.87 12.12L219.49 11.9L221.84 12.71L223.66 13.81L222.78 15.24L222.77 16.39L225.11 19.81L225.31 21.36L223.8 24.28L221.92 25.69L221.2 27.19L221.47 27.58L221.53 29.75L220.06 32.16L219.16 34.93L218.85 37.5L218.76 40.17L219.74 42.04L220.25 43.8L220.24 45.2L221.81 46.23L222.71 46.43L222.84 47.11L222.38 52.26L222.5 53L224.31 53.29L223.65 54.46L224.11 54.96L226.26 55.7L227.72 57.62L230.38 60.36L234.61 61.4Z" fill="black"/>
<path d="M321.99 638.52L321.63 638.53L319.69 637.42L319.49 636.96L320.01 632.69L319.55 628.44L319.7 627.37L320.33 626.13L323.17 623.75L324 622.19L326.3 619.63L324.84 617.98L323.77 617.36L321.52 616.76L319.2 614.51L317.99 612.89L317.89 611.3L317.46 610.12L316.23 608.09L314.17 605.85L313.5 605.26L311.11 604.05L309.66 604.26L307.76 602.75L306.24 601.12L304.99 600.34L304.85 598.64L302.95 596.48L299.63 596.02L298.71 595.55L296.98 593.89L295.22 594.02L293.05 592.64L291.14 588.93L290.03 587.44L287.5 585.32L286.8 585.4L286.13 587.19L283.54 589.43L280.87 589.55L280.97 586.69L281.37 585.41L280.98 584.41L277.33 580.12L274.96 578.35L272.78 576.29L271.03 574.18L268.34 571.97L266.44 571.83L264.29 572.04L263.15 573.4L263.09 574.36L262.06 575.33L260.95 575.35L260.37 574.87L257.21 575.01L256.56 574.53L256.4 573.62L255.91 573.4L256.76 573.18L257.8 572.46L260.32 569.69L260.43 567.85L261.03 566.6L261.85 566.15L263.14 566.08L263.78 565.82L264.7 564.82L270.15 558.34L270.78 556.92L270.95 555.81L271.77 554.74L272.97 553.89L274.34 553.48L276.3 549.26L276.4 548.65L276.71 548.28L278.35 547.42L279.98 545.62L280.83 544.47L281.34 543.18L282.68 541.08L283.61 540.79L285.18 540.97L285.73 541.76L286.2 540.48L285.99 539.9L284.64 539.08L284.59 538.72L284.94 538.39L286.02 538.01L286.84 537.05L289.63 536.1L290.68 535.03L290.78 534.11L291.6 533.2L293.81 532.05L296.28 531.65L298.05 529.84L298.2 528.78L299.52 526.42L299.85 526.38L299.9 526.74L300.19 526.94L301.52 526.77L303.96 525.64L306.64 525.05L307.85 524.48L309.95 522.13L310.45 522.14L311.12 521.75L312.13 520.4L314.44 519.67L314.74 520.05L318.26 520.44L321.52 519.29L322.08 518.48L323.43 519.06L323.28 519.98L326.36 519.95L327.99 520.94L330.55 520.57L332.47 521.72L335.05 521.31L336.59 521.49L339.39 521.33L341.65 522.25L344.13 523.65L345.13 526.09L346.72 526.28L346.81 525.8L348.62 525.45L354.18 528.99L355.55 530.54L356.26 530.51L357.82 531.49L360.85 534.98L362.49 537.19L362.97 538.67L365.14 541.33L366.31 541.88L373 542.94L375.11 542.54L378.46 542.88L379.34 545.22L377.26 546.8L375.99 547.21L375.26 549.07L375.48 551.26L375.1 552.82L374.58 554.12L373.4 554.32L372.11 556.01L372.08 557.42L373.88 558.59L374.15 558.39L373.87 557.42L373.88 556.46L375.37 555.64L376.95 556.28L377.68 557.19L378.85 558.04L379.3 558.01L377.9 559.74L374 566.78L369.79 578.38L363.49 588.86L358.05 595.52L351.54 601.48L345.45 605.16L342.35 609.47L342.17 609.04L342.82 607.46L343.16 605.28L341.98 603.57L342.08 603.15L343.01 602.98L344.02 603.38L344.58 603.96L345.6 604L348.18 602.59L349 601.91L351.85 598.2L352.6 597.51L353.05 597.7L354.07 597.51L355.12 596.67L356.05 595.4L356.42 593.92L356.6 592.99L356.37 590.89L356.57 589.52L358.14 589.45L358.88 589.75L359.15 590.58L359.5 590.32L359.21 588.92L359.72 586.85L360.2 586.28L362.94 584.69L363.67 583.61L364.14 580.86L363.93 578.58L364.49 577.9L364.99 578.7L365.36 578.73L365.79 578.31L366.26 575.23L366.16 574.79L365.21 573.57L364.54 573.54L364.28 574.23L364.45 574.62L364.31 575.19L363.96 575.39L362.45 575.37L360.44 575.77L360.1 577.38L359.57 577.43L358.76 576.99L358.86 575.28L358.04 574.39L357 574.72L356.4 574.24L355.67 572.98L355.27 571.53L355.39 570.96L354.75 570.27L354.14 572.98L354.58 575.23L355.83 577.34L355.26 578.15L354.52 580.69L354.9 583.72L354.72 584.49L354.24 584.12L354.5 583.88L354.47 583.17L354 581.89L353.55 581.5L353.02 582.16L352.99 583.53L351.58 586.8L351.53 588.69L351.75 589.21L351.03 589.91L349.42 590.55L348.81 592.13L344.72 593.7L344 594.23L343.47 595.82L343.37 598.09L342.4 600.36L340.04 601.66L339.93 603.42L340.41 604.25L340.66 605.27L339.71 605.83L339.46 607.34L339.89 607.94L340.57 607.8L341.87 608.43L342.02 609.34L339.89 610.99L337.57 615.51L335.64 622.39L333.63 626.88L331.95 629.4L324.16 636.93L321.99 638.52Z" fill="#F19300"/>
<path d="M379.3 558.01L378.85 558.04L377.68 557.19L376.95 556.27L375.36 555.64L373.88 556.46L373.87 557.42L374.15 558.39L373.88 558.59L372.08 557.42L372.12 556.01L373.4 554.32L374.58 554.12L375.11 552.81L375.48 551.26L375.26 549.07L375.99 547.21L377.26 546.79L379.34 545.21L378.46 542.87L375.11 542.53L373 542.93L366.31 541.87L365.15 541.33L362.98 538.67L362.49 537.19L360.86 534.98L357.83 531.49L356.26 530.5L355.55 530.53L354.18 528.98L348.62 525.44L346.81 525.78L346.72 526.26L345.12 526.07L344.12 523.63L341.65 522.24L339.38 521.31L336.59 521.47L335.05 521.29L332.46 521.7L330.55 520.55L327.98 520.91L326.35 519.93L323.27 519.96L323.42 519.03L322.07 518.45L321.51 519.26L318.25 520.42L314.73 520.03L316.18 517.1L316.91 515.01L316.33 511.76L316.74 508.55L316.7 506L317.66 504.25L321.29 504.27L322 503.89L322.53 503.9L323.59 504.14L323.9 504.65L325.93 506.06L328.61 506.09L330.95 505.51L336.24 507.19L340.5 507.55L341.52 508.18L341.69 508.59L343.26 509.77L347.03 510.19L351.28 510.06L352.61 511.96L352.79 511.46L353.53 511.08L354.45 511.06L355.32 510.2L354.47 507.21L355.16 505.63L355.88 504.85L357.88 503.71L361.45 504.11L363.32 503.14L364.05 502.27L364.64 500.79L366.17 500.14L367.28 500L368.7 500.76L369.51 500.79L371.84 500.62L374.68 499.89L375.43 499.9L376.47 500.3L379.59 502.9L380.82 503.52L382.26 503.68L385.61 501.55L386.96 500.12L388.52 499.55L388.64 499.94L389.4 500.01L391.14 499.78L391.47 499.34L396.71 499.37L396.32 500.69L396.83 502.34L396.76 502.73L395.26 503.87L394.28 503.39L393.46 500.86L393.44 501.98L394.03 504.7L395.74 506.36L396.3 507.31L395.29 509.6L395.13 511.92L395.23 512.35L395.99 513.08L396.25 518.94L396.56 519.49L396.99 519.69L397.76 519.18L398.11 519.9L398.21 520.77L397.74 520.83L397.31 520.55L396.12 521.18L395.78 525.02L396.35 527.61L395.78 528.36L396.09 530.29L397 532.17L396.14 534.51L395.62 538.52L393.91 543.2L393.57 543.1L393.21 542.34L393.42 541.37L392.5 540.19L392.24 540.52L392.42 542.95L393.58 543.78L392.66 545.44L391.02 546.09L386.89 549.13L384.09 551.69L380.34 556.13L379.3 558.01ZM397.18 531.46L397.03 530.99L397.28 529.24L398.04 526.84L397.64 525.66L397.8 524.64L399.2 523.88L399.42 523.94L400.08 524.88L399.54 527.44L398.72 528.3L398.13 529.52L398.33 530.69L397.18 531.46ZM396.73 507.09L394.86 505.07L397.41 502.63L397.66 502.67L398.31 503.72L397.45 505.04L396.73 507.09Z" fill="black"/>
<path d="M404.58 487.92L404.42 486.59L403 486.02L402.27 482.72L402.67 480.77L400.53 480.19L399.77 480.36L398.67 483.13L398.01 483.98L396.95 483.45L396.6 482.67L397.29 479.37L398.18 478.71L398.32 478.31L396.71 477.04L395.12 476.91L393.54 477.1L393.04 476.72L389.63 477.25L387.25 477.37L386.24 477.16L385.64 476.77L385.31 474.73L386.59 472.61L386.84 471.56L386.59 471.12L385.99 470.82L385.07 468.85L385.13 467.96L384.63 467.28L383.96 466.99L382.75 465.85L381.26 462.84L381.62 462.29L381.7 460.53L380.4 459.01L380.02 457.17L380.19 456.36L380.58 455.78L380.56 453.04L379.67 451.28L376.08 448.45L374.95 446.9L371.98 447.76L366.67 447.63L366.01 447.09L364.36 446.95L363.94 447.29L362.22 447.22L361.5 445.9L360.87 445.39L357.36 444.59L355.61 443.75L354.83 442.75L352.25 442.76L351.18 443.3L349.86 443.17L347.22 442.08L344.69 441.62L343.21 440.83L342.04 440.54L341.31 440.91L340.97 441.51L339.76 442.13L336.48 441.84L332.47 441.95L328.64 441.3L325.39 443.59L326.23 442.51L326.96 440.97L328.22 439.83L335.78 435.29L337.73 433.42L338.99 430.99L340.72 429.3L341.12 428.09L342.56 427.06L342.84 425.84L342.49 425L344.49 422.74L345.7 420.4L345.77 419.46L345.46 417.53L345.69 417.14L346.65 416.62L349.25 412.98L349.41 410.05L350.03 408.37L351.04 408.07L351.77 407.43L353.76 404.75L354.98 403.73L355.45 403.5L356.76 403.46L358.26 402.68L358.54 402.28L358.94 399.82L360.16 398.69L362.31 397.58L364.23 397.21L365.66 395.52L367.16 394.91L367.91 395.05L369.64 396.6L372.19 396.68L376.48 397.64L378.15 397.28L379.77 397.5L381.77 396.91L383.95 398.33L385.62 399.12L385.49 400.04L385.82 401.46L387.03 403.55L387.66 403.58L388.2 403.26L388.87 402.32L389.28 401.19L389.54 401L390.09 401.05L390.45 401.44L390.7 402.4L390.71 405.18L391.91 405.71L392.32 405.26L392.05 402.72L392.54 401.53L392.99 401.05L401.17 400.38L402.18 399.13L403.68 400.59L404.8 401.02L407.58 400.33L408.02 399.34L407.82 398.88L408.13 398.27L410.51 398.16L412.17 398.94L413.02 398.3L414.33 398.01L417.59 401.36L417.79 402.4L417.22 403.41L416.93 405.78L417.51 406.39L419.4 407.6L419.8 409.15L419.74 409.71L418.22 411.74L418.04 413.68L418.83 414.42L419.14 415.03L419.51 417.24L420.81 419.04L421.64 421.03L421.61 421.88L423.22 421.83L424 421.52L424.28 421.16L425.28 421.11L428.98 422.43L429.21 422.8L429.16 424.07L428.46 426.25L426.6 428.97L426.86 431.91L426.67 435.36L426.14 436.92L426.86 438.52L428.64 439.76L430.45 440.59L430.96 442.31L429.75 443.01L431.77 446.32L432.9 446.57L434.91 446.33L435.09 446.86L438.71 445.86L439.27 446.28L440.58 445.96L441.33 444.98L441.38 444.14L441.14 443.9L441.31 441.6L442.5 441.27L442.59 441.62L442.24 442.11L442.25 442.59L444.59 442.67L446.98 442.42L448.77 441.75L450 440.51L451.93 439.49L454.14 439.27L455.38 438.54L456.65 439.08L457.21 440.25L458.44 441.84L460.21 442.23L463.36 441.7L465.06 441.71L465.81 443.35L464.16 445.5L462.66 446.21L459.89 446.57L459.39 446.42L457.04 447.43L455.95 448.58L454.86 452.08L454.91 452.49L456.54 454.22L457.02 454.48L456.96 454.68L455.27 455.1L454.21 454.28L452.73 455.39L452.3 456.04L452.57 456.26L451.81 456.9L448.59 458.45L446.34 459.15L446.06 459.59L446.1 460.55L446.6 462.1L446.28 462.52L444.88 462.78L444.18 462.14L442.84 461.85L439.72 461.35L438.86 461.5L437.54 461.84L435.81 462.66L435.31 463.17L434.1 465.32L432.79 465.89L432.29 465.77L432.87 465.3L432.39 464.08L431.22 463.23L430.39 464.46L430.65 465.21L430.35 465.82L422.73 470.06L421.78 470.88L421.47 472.04L418.2 475.04L414.95 476.99L413.03 477.52L408.53 480.73L406.2 482.69L405.53 482.77L405.09 483.39L405.99 483.82L406.65 483.88L407.58 483.52V484.28L406.96 485.59L405.64 486.44L404.58 487.92ZM448.89 464.91L447.35 464.26L446.19 464.44L445.7 464.06L445.8 463.28L446.75 462.63L447.84 460.78L448.56 461.03L449.22 461.68L449.35 464.59L448.89 464.91Z" fill="#ED7A08"/>
<path d="M433.35 281.82L427.99 283.24L426.25 284.58L423.69 285.68H422.14L417.61 286.68L415.09 288.76L413.31 289.66L412.85 289.42L411.34 286.8L410.79 286.77L410.28 290.07L409.59 290.15L406.24 289.47L403.11 288L403.67 286.44L403.45 285.7L398.92 286.23L396.16 285.89L395.6 286.43L395.3 287.43L394.55 288.18L393.41 288.13L392.8 285.03L391.69 281.32L390.65 279.44L389.5 278.13L388.32 279.1L386.85 281.49L385.22 287.43L384.59 287.66L380.52 286.23L377.43 284.52L373.5 284.12L371.3 283.09L368.9 282.69L369.42 280.35L370.64 278.47L370.67 276.76L370.11 277.06L368.3 279.15L367.64 280.38L367.44 282.26L367.1 282.71L366.3 282.69L365.34 282.18L364.36 278.84L365.1 276.08L364.66 273.03L364.14 272.45L364.13 270.88L364.6 267.57L363.5 265.32L363.55 264.82L364.37 263.93L364.53 263.06L363.14 261.72L363.08 260.86L364.96 254.87L365 251.92L365.54 248.95L367.48 243.66L367.85 243.39L368.28 242.54L368.72 239.4L369.82 238.15L370.38 236.26L371.03 235.24L372.65 231.55L373.78 227.1L374.93 225.52L376.12 224.42L377.33 222.74L378.36 220.82L379.73 219.9L380.78 219.74L381.51 218.89L382.45 217.35L382.63 216.36L384.33 213.12L385.42 212.32L387.18 207.17L387.84 203.13L387.69 202.83L386.95 202.51L385.28 200.77L384.68 199.82L384.52 198.94L384.66 198.37L386.07 196.68L387.36 194.58L387.3 191.91L386.87 189.73L387.06 189.38L389.53 187.6L392.94 186.46L395.44 185.25L395.68 184.75L395.53 183.24L396.39 181.97L397.9 180.63L399.19 180.48L399.38 179.14L399.09 177.94L399.34 177.48L400.8 177.02L401.44 176.54L402.37 173.79L401.35 172.45L401.26 171.05L401.55 170.77L402.52 170.69L403.24 170.32L403.61 169.66L403.64 169.02L402.38 167.85L401.51 167.71L401.12 167.4L400.1 165.74L398.81 165.62L396.94 165.87L394.65 165.06L395.18 164.42L397.8 162.57L399.76 162.04L400.63 162.09L403.41 163.61L404.81 163.69L405.76 163.17L407.5 163.46L408.09 164.15L408.17 165.18L408.45 165.5L409.67 165.53L413.07 166.96L413.91 167.99L414.38 171.49L415.02 172.99L414.81 176.71L415.04 177.79L415.71 178.92L415.7 179.36L413.93 185.51L413.62 187.88L413.9 188.88L413.65 190.47L411.9 192.51L410.14 193.18L409.96 193.89L411.9 195.21L412.32 194.94L413.69 195.18L413.94 195.53L414.05 196.41L413.43 197.6L414.28 199.04L415.16 198.97L418.16 203.13L419.07 203.98L421.35 207L423.49 205.66L427.76 204.72L429.56 205.94L429.64 207.69L429 210.94L429.39 212.29L426 212.64L424.66 213.18L424.09 213.73L423.41 215.16L422.68 217.84L423.05 219.14L420.42 221.69L420.16 222.39L420.36 222.81L422.44 223.1L423.38 223.79L424.12 225.38L424.18 227.04L424.8 228.08L428.68 230.03L428.77 230.56L427.13 232.37L427.26 234.02L429.4 235.64L430.39 238.51L431.73 240.51L432.44 240.69L434.22 240.48L435.22 240.78L436.04 241.22L436.65 242.04L437.93 242.7L440.87 242.91L440.18 243.56L439.96 244.54L439.4 245.01L435.58 247.03L432.37 249.65L432.18 250.02L433.47 251.82L433.11 252.21L432.1 252.48L431.2 253.09L429.68 256.58L428.67 257.3L428.17 258.46L428.4 259.38L430.26 261.33L433.85 262L435.72 262.99L435.77 263.75L435.21 264.2L433.17 265.01L432.74 265.97L432.83 266.47L433.18 266.8L434.21 266.62L435.13 266.91L435.71 267.42L436 268.06L435.04 268.77L433.89 269.19L431.94 270.86L431.75 271.71L431.7 274.63L432.05 275.88L432.99 276.54L434.04 276.78L434.45 277.03L434.62 277.45L434.67 278.51L433.31 280.89L433.35 281.82Z" fill="black"/>
</svg>
